<svg width="36" height="36" viewBox="0 0 36 36" fill="none" xmlns="http://www.w3.org/2000/svg">
<path d="M34.0197 1.98028C32.6989 0.659492 31.1097 0 29.2501 0H6.74989C4.89034 0 3.30107 0.659492 1.98028 1.98028C0.659492 3.30107 0 4.89034 0 6.74989V29.2501C0 31.1097 0.659492 32.6989 1.98028 34.0197C3.30107 35.3405 4.89034 36 6.74989 36H12.0006C12.343 36 12.6006 35.9874 12.7736 35.964C12.9749 35.9236 13.1565 35.8163 13.289 35.6594C13.4601 35.4793 13.5466 35.218 13.5466 34.8756L13.534 33.2809C13.5268 32.2647 13.5232 31.461 13.5232 30.8664L12.9826 30.9601C12.6403 31.0232 12.2078 31.0502 11.6835 31.043C11.1369 31.0329 10.5921 30.9781 10.0546 30.879C9.48228 30.7734 8.94356 30.5324 8.48331 30.1763C8.00129 29.8116 7.64177 29.3088 7.45263 28.7348L7.21838 28.1942C7.02094 27.7678 6.7729 27.3667 6.4796 26.9995C6.14445 26.5617 5.80389 26.2662 5.45973 26.1094L5.29756 25.9923C5.18448 25.9113 5.08162 25.8169 4.99124 25.7112C4.90492 25.6131 4.83385 25.5025 4.78042 25.3833C4.73357 25.2733 4.77321 25.1832 4.89754 25.113C5.02367 25.0409 5.24891 25.0067 5.57866 25.0067L6.04715 25.0787C6.35888 25.14 6.74628 25.3274 7.20577 25.6391C7.67076 25.9561 8.05919 26.3729 8.34276 26.859C8.70314 27.4987 9.13559 27.987 9.64373 28.3239C10.1519 28.6591 10.6636 28.8285 11.1789 28.8285C11.6943 28.8285 12.1393 28.7888 12.5159 28.7113C12.8801 28.636 13.234 28.5175 13.57 28.3582C13.7106 27.3131 14.0926 26.5058 14.7179 25.9436C13.9077 25.8642 13.1047 25.7233 12.3159 25.522C11.5462 25.3105 10.8058 25.0036 10.1122 24.6084C9.3865 24.2133 8.74549 23.6795 8.22564 23.0372C7.72651 22.4119 7.31568 21.5921 6.99494 20.5776C6.67601 19.5613 6.51564 18.3883 6.51564 17.0603C6.51564 15.1701 7.13189 13.561 8.36618 12.2312C7.78958 10.8114 7.84364 9.21668 8.53016 7.45263C8.98423 7.31028 9.65634 7.41659 10.5465 7.76796C11.4366 8.11932 12.0889 8.42024 12.5033 8.6689C12.9178 8.92117 13.2493 9.13199 13.4998 9.30317C14.9647 8.8955 16.4785 8.69057 17.9991 8.69413C19.5469 8.69413 21.0461 8.89774 22.5002 9.30317L23.3904 8.74098C24.075 8.32988 24.7972 7.98477 25.5472 7.7103C26.3761 7.39677 27.0068 7.31208 27.4464 7.45263C28.1492 9.21848 28.2104 10.8114 27.632 12.233C28.8663 13.561 29.4844 15.1701 29.4844 17.0621C29.4844 18.3901 29.324 19.5667 29.0033 20.5884C28.6843 21.6119 28.2699 22.4318 27.7617 23.0498C27.2327 23.6839 26.5891 24.2126 25.8644 24.6084C25.1076 25.0301 24.3724 25.3346 23.6606 25.522C22.8719 25.7239 22.069 25.8655 21.2587 25.9454C22.0696 26.6482 22.4768 27.7563 22.4768 29.2717V34.8756C22.4768 35.1405 22.5146 35.3549 22.5939 35.5189C22.6304 35.5979 22.6823 35.6688 22.7467 35.7273C22.8111 35.7858 22.8866 35.8307 22.9687 35.8595C23.1417 35.9207 23.2931 35.9604 23.4264 35.9748C23.5597 35.9928 23.7507 35.9982 23.9994 35.9982H29.2501C31.1097 35.9982 32.6989 35.3387 34.0197 34.0179C35.3387 32.6989 36 31.1079 36 29.2483V6.74989C36 4.89034 35.3405 3.30107 34.0197 1.98028Z" fill="black"/>
</svg>
