<svg width="29" height="36" viewBox="0 0 29 36" fill="none" xmlns="http://www.w3.org/2000/svg">
<path d="M16.2 12.6H26.1L16.2 2.7V12.6ZM3.6 0H18L28.8 10.8V32.4C28.8 33.3548 28.4207 34.2705 27.7456 34.9456C27.0705 35.6207 26.1548 36 25.2 36H3.6C2.64522 36 1.72955 35.6207 1.05442 34.9456C0.379284 34.2705 0 33.3548 0 32.4V3.6C0 1.602 1.602 0 3.6 0ZM18 32.4V30.6C18 28.206 13.194 27 10.8 27C8.406 27 3.6 28.206 3.6 30.6V32.4H18ZM10.8 18C9.84522 18 8.92955 18.3793 8.25442 19.0544C7.57929 19.7295 7.2 20.6452 7.2 21.6C7.2 22.5548 7.57929 23.4705 8.25442 24.1456C8.92955 24.8207 9.84522 25.2 10.8 25.2C11.7548 25.2 12.6705 24.8207 13.3456 24.1456C14.0207 23.4705 14.4 22.5548 14.4 21.6C14.4 20.6452 14.0207 19.7295 13.3456 19.0544C12.6705 18.3793 11.7548 18 10.8 18Z" fill="white"/>
</svg>
