<svg width="36" height="36" viewBox="0 0 36 36" fill="none" xmlns="http://www.w3.org/2000/svg">
<g clip-path="url(#clip0_42_368)">
<path d="M27.5625 0H8.4375C3.7776 0 0 3.7776 0 8.4375V27.5625C0 32.2224 3.7776 36 8.4375 36H27.5625C32.2224 36 36 32.2224 36 27.5625V8.4375C36 3.7776 32.2224 0 27.5625 0Z" fill="white"/>
<path d="M27.5625 0H8.4375C3.7776 0 0 3.7776 0 8.4375V27.5625C0 32.2224 3.7776 36 8.4375 36H27.5625C32.2224 36 36 32.2224 36 27.5625V8.4375C36 3.7776 32.2224 0 27.5625 0Z" fill="white"/>
<path d="M28.0648 12.8547C28.0803 13.0778 28.0803 13.301 28.0803 13.5263C28.0803 20.3884 22.8563 28.3025 13.3041 28.3025V28.2982C10.4822 28.3023 7.71877 27.4941 5.34375 25.9702C5.75409 26.0196 6.16641 26.0442 6.57984 26.0452C8.91867 26.047 11.1902 25.2625 13.0295 23.8178C11.9458 23.7973 10.8956 23.4387 10.0258 22.7921C9.15592 22.1455 8.50985 21.2432 8.17791 20.2115C8.95595 20.3615 9.75805 20.3309 10.5224 20.122C8.09972 19.6325 6.35667 17.5039 6.35667 15.0317V14.9659C7.07891 15.3681 7.88721 15.5911 8.71355 15.6158C6.43177 14.0908 5.72836 11.0551 7.1062 8.68163C8.40998 10.286 10.0367 11.5982 11.8806 12.5329C13.7246 13.4677 15.7445 14.004 17.8093 14.1072C17.6034 13.2211 17.6339 12.2964 17.8975 11.4256C18.1611 10.5549 18.6488 9.76868 19.3116 9.14555C21.4033 7.17933 24.6929 7.28016 26.6591 9.37069C27.8221 9.14108 28.9374 8.71473 29.9569 8.10999C29.5692 9.31242 28.758 10.3331 27.674 10.9821C28.7035 10.8608 29.7088 10.5853 30.6562 10.1647C29.9593 11.2084 29.0818 12.1192 28.0648 12.8547Z" fill="black"/>
</g>
<defs>
<clipPath id="clip0_42_368">
<rect width="36" height="36" fill="white"/>
</clipPath>
</defs>
</svg>
