<svg width="48" height="48" viewBox="0 0 48 48" fill="none" xmlns="http://www.w3.org/2000/svg">
<path d="M36.75 0H11.25C5.0368 0 0 5.0368 0 11.25V36.75C0 42.9632 5.0368 48 11.25 48H36.75C42.9632 48 48 42.9632 48 36.75V11.25C48 5.0368 42.9632 0 36.75 0Z" fill="#242938"/>
<path d="M19.0564 34.241C19.0564 34.241 17.6164 35.1174 20.0586 35.3681C23.0076 35.7438 24.5668 35.681 27.8224 35.0553C27.8224 35.0553 28.6988 35.6195 29.8886 36.0573C22.5621 39.1878 13.2955 35.8695 19.0564 34.241ZM18.1172 30.1713C18.1172 30.1713 16.5516 31.3612 18.9936 31.6111C22.1863 31.9241 24.6919 31.9869 29.0123 31.1111C29.0123 31.1111 29.5765 31.7375 30.5151 32.0505C21.687 34.6801 11.7932 32.3004 18.1172 30.1719V30.1713ZM35.3991 37.3095C35.3991 37.3095 36.4633 38.1858 34.2092 38.8751C30.0137 40.1272 16.6144 40.5035 12.8575 38.8751C11.5433 38.3109 14.0475 37.4966 14.8611 37.3723C15.6752 37.1844 16.1132 37.1844 16.1132 37.1844C14.6732 36.1824 6.5329 39.2506 11.9805 40.1336C26.9455 42.5761 39.2811 39.0693 35.3985 37.3158L35.3991 37.3095ZM19.7451 25.913C19.7451 25.913 12.9197 27.5415 17.3023 28.1043C19.1809 28.3543 22.875 28.2922 26.319 28.0415C29.1368 27.7914 31.9609 27.2902 31.9609 27.2902C31.9609 27.2902 30.9587 27.7286 30.2702 28.1666C23.3141 29.984 9.97709 29.1699 13.7968 27.2913C17.0537 25.7257 19.7451 25.913 19.7451 25.913ZM31.9543 32.7382C38.9681 29.1063 35.7113 25.6001 33.4571 26.0386C32.893 26.1637 32.643 26.2888 32.643 26.2888C32.643 26.2888 32.8307 25.913 33.2693 25.7887C37.7147 24.2231 41.2217 30.4848 31.8295 32.9268C31.8295 32.9268 31.8923 32.864 31.9543 32.739V32.7382ZM20.4336 42.6307C27.1961 43.0693 37.5276 42.3806 37.7783 39.1865C37.7783 39.1865 37.2782 40.4386 32.2058 41.378C26.4454 42.4423 19.3065 42.3172 15.1118 41.628C15.1118 41.628 15.9881 42.3793 20.4341 42.63L20.4336 42.6307Z" fill="white"/>
<path d="M27.6909 5.25C27.6909 5.25 31.5729 9.19481 23.9968 15.1425C17.9229 19.9635 22.6185 22.719 23.9968 25.8489C20.4278 22.6562 17.8614 19.8379 19.6136 17.208C22.1871 13.3281 29.2616 11.4495 27.6909 5.25ZM25.6875 23.2204C27.5031 25.2866 25.1874 27.1652 25.1874 27.1652C25.1874 27.1652 29.8208 24.7866 27.6923 21.8426C25.7509 19.0249 24.2483 17.6471 32.3884 12.9504C32.3884 12.9504 19.5521 16.1432 25.6888 23.2191L25.6875 23.2204Z" fill="#F58219"/>
</svg>
