<svg width="48" height="39" viewBox="0 0 48 39" fill="none" xmlns="http://www.w3.org/2000/svg">
<g clip-path="url(#clip0_16_20)">
<path d="M9.96975 0C7.23094 0 5.20425 2.39719 5.295 4.99687C5.38219 7.49437 5.26894 10.7293 4.45463 13.3673C3.63787 16.0129 2.25638 17.6887 0 17.904V20.3333C2.25638 20.5485 3.63787 22.2244 4.45463 24.8702C5.26894 27.5081 5.38219 30.7427 5.295 33.2404C5.20425 35.8397 7.23094 38.2373 9.97013 38.2373H38.0338C40.7728 38.2373 42.7989 35.8401 42.7082 33.2404C42.6212 30.7429 42.7342 27.5081 43.5486 24.8702C44.3659 22.2246 45.7436 20.5483 48 20.3333V17.904C45.7436 17.6887 44.3659 16.0129 43.5487 13.3673C42.7342 10.7297 42.6212 7.49456 42.7082 4.99687C42.7989 2.39756 40.7728 0 38.0338 0H9.96937H9.96975ZM32.5425 23.5374C32.5425 27.1172 29.8725 29.2881 25.4415 29.2881H17.8984C17.6826 29.288 17.4758 29.2023 17.3232 29.0497C17.1707 28.8971 17.085 28.6902 17.085 28.4745V9.76275C17.085 9.6559 17.106 9.55008 17.1469 9.45136C17.1877 9.35263 17.2477 9.26292 17.3232 9.18735C17.3988 9.11179 17.4885 9.05184 17.5872 9.01095C17.6859 8.97005 17.7917 8.949 17.8986 8.949H25.3984C29.0931 8.949 31.5178 10.9506 31.5178 14.0233C31.5178 16.1801 29.8866 18.111 27.8085 18.4491V18.5618C30.6377 18.8721 32.5425 20.8312 32.5425 23.5374ZM24.6188 11.5281H20.3181V17.6031H23.9406C26.7407 17.6031 28.2849 16.4754 28.2849 14.4598C28.2849 12.5711 26.9569 11.5281 24.6188 11.5281ZM20.3181 20.0136V26.7083H24.7772C27.6924 26.7083 29.2371 25.5384 29.2371 23.3398C29.2371 21.1408 27.6495 20.0132 24.5897 20.0132H20.3181V20.0136Z" fill="#7E13F8"/>
</g>
<defs>
<clipPath id="clip0_16_20">
<rect width="48" height="38.25" fill="white"/>
</clipPath>
</defs>
</svg>
