<svg width="48" height="48" viewBox="0 0 48 48" fill="none" xmlns="http://www.w3.org/2000/svg">
<path d="M7.05522 42.7961L3.28497 0.507019H44.715L40.941 42.7898L23.9748 47.4934L7.05522 42.7961Z" fill="#1572B6"/>
<path d="M24.0004 43.8982L37.71 40.0972L40.9354 3.96448H24.0004V43.8982Z" fill="#33A9DC"/>
<path d="M24.0004 19.2859H30.8636L31.3376 13.9748H24.0004V8.78815H37.0061L36.8816 10.1798L35.6066 24.4725H24.0004V19.2859Z" fill="white"/>
<path d="M24.0311 32.7559L24.0082 32.7627L18.2321 31.203L17.8627 27.0664H12.657L13.3834 35.2103L24.0075 38.1589L24.0311 38.1522V32.7559Z" fill="#EBEBEB"/>
<path d="M30.4226 24.2531L29.7979 31.1989L24.0131 32.7604V38.1566L34.6459 35.2099L34.7239 34.3335L35.6261 24.2531H30.4226Z" fill="white"/>
<path d="M24.018 8.78815V13.9748H11.49L11.3861 12.8093L11.1499 10.1798L11.0258 8.78815H24.018ZM24.0004 19.2866V24.4733H18.297L18.1931 23.3078L17.9565 20.6783L17.8328 19.2866H24.0004Z" fill="#EBEBEB"/>
</svg>
