<svg width="48" height="48" viewBox="0 0 48 48" fill="none" xmlns="http://www.w3.org/2000/svg">
<g clip-path="url(#clip0_16_13)">
<path d="M36.75 0H11.25C5.0368 0 0 5.0368 0 11.25V36.75C0 42.9632 5.0368 48 11.25 48H36.75C42.9632 48 48 42.9632 48 36.75V11.25C48 5.0368 42.9632 0 36.75 0Z" fill="#242938"/>
<path d="M24.0002 27.5533C25.9322 27.5533 27.4982 25.9871 27.4982 24.0553C27.4982 22.1235 25.9322 20.5573 24.0002 20.5573C22.0684 20.5573 20.5022 22.1235 20.5022 24.0553C20.5022 25.9871 22.0684 27.5533 24.0002 27.5533Z" fill="#00D8FF"/>
<path d="M11.3202 18.3107C9.32672 19.0056 7.70771 19.8859 6.57688 20.8534C5.45731 21.8112 4.75 22.915 4.75 24.0553C4.75 25.2265 5.49853 26.3879 6.67925 27.399C7.87409 28.4223 9.58392 29.3576 11.6851 30.0758L11.6851 30.0758C15.0112 31.2124 19.4002 31.7371 24.0004 31.7371C28.4932 31.7371 32.7844 31.1771 36.0682 30.0891C38.2363 29.3708 40.006 28.4435 41.2444 27.424C42.4679 26.4167 43.25 25.2519 43.25 24.0553C43.25 22.9006 42.5072 21.7881 41.3564 20.8279C40.1918 19.8561 38.5326 18.9723 36.5123 18.2769C33.1591 17.1223 28.7391 16.4431 24.0004 16.4431H23.9996C19.2154 16.4431 14.687 17.1368 11.3202 18.3107ZM11.3202 18.3107L11.4847 18.7828L11.3202 18.3107Z" stroke="#00D8FF"/>
<path d="M33.5865 7.39724L33.5865 7.39722C32.5863 6.82047 31.2515 6.90822 29.8448 7.42545C28.4211 7.94889 26.8266 8.94474 25.2149 10.3475C22.5941 12.6279 19.8572 16.0232 17.5211 20.0196H17.5193L17.375 20.2699C14.9859 24.4143 13.3244 28.6838 12.6593 32.1869C12.2654 34.261 12.2191 36.1033 12.4922 37.5663C12.7626 39.0146 13.3655 40.1789 14.3534 40.7482C15.3679 41.3331 16.7479 41.2649 18.2137 40.7472C19.6971 40.2233 21.3616 39.2094 23.0334 37.748C25.6794 35.4353 28.3264 31.8953 30.6246 27.9104C32.8691 24.0183 34.5283 20.0213 35.2258 16.6331C35.6866 14.3962 35.7674 12.3998 35.5028 10.8176C35.2415 9.25454 34.6232 7.99505 33.5865 7.39724Z" stroke="#00D8FF"/>
<path d="M12.7005 16.1746L12.7005 16.1745C12.2902 14.0775 12.2238 12.1988 12.4813 10.704C12.7357 9.22693 13.3264 8.02676 14.3257 7.44828L12.7005 16.1746ZM12.7005 16.1746C13.382 19.6547 15.0079 23.8209 17.3821 27.9214C19.7791 32.0619 22.6484 35.6334 25.3511 37.959C26.9513 39.3361 28.5243 40.2963 29.9282 40.7902C31.3181 41.2792 32.6277 41.3382 33.6145 40.7669C34.6281 40.1802 35.2581 38.9506 35.5417 37.4221C35.8286 35.8754 35.7815 33.927 35.3503 31.7486L34.8598 31.8457M12.7005 16.1746L34.8598 31.8457M34.8598 31.8457L35.3503 31.7486C34.6679 28.3014 32.9231 24.24 30.6184 20.2588C28.3673 16.3705 25.7328 12.9375 23.1459 10.6406M34.8598 31.8457L23.1459 10.6406M23.1459 10.6406C21.438 9.12416 19.7489 8.05712 18.246 7.49614M23.1459 10.6406L18.246 7.49614M18.246 7.49614C16.7614 6.94193 15.3615 6.84864 14.3258 7.44825L18.246 7.49614Z" stroke="#00D8FF"/>
</g>
<defs>
<clipPath id="clip0_16_13">
<rect width="48" height="48" fill="white"/>
</clipPath>
</defs>
</svg>
