<svg width="48" height="48" viewBox="0 0 48 48" fill="none" xmlns="http://www.w3.org/2000/svg">
<path d="M36.75 0H11.25C5.0368 0 0 5.0368 0 11.25V36.75C0 42.9632 5.0368 48 11.25 48H36.75C42.9632 48 48 42.9632 48 36.75V11.25C48 5.0368 42.9632 0 36.75 0Z" fill="#F03C2E"/>
<mask id="mask0_16_102" style="mask-type:luminance" maskUnits="userSpaceOnUse" x="5" y="5" width="38" height="38">
<path d="M5.25 5.25H42.75V42.75H5.25V5.25Z" fill="white"/>
</mask>
<g mask="url(#mask0_16_102)">
<path d="M42.0422 22.3301L25.6699 5.95775C25.3323 5.6198 24.9021 5.38963 24.4336 5.29641C23.9651 5.20318 23.4795 5.25109 23.0383 5.43407C22.7454 5.55547 22.4793 5.73343 22.2551 5.95775L18.8567 9.35619L23.1692 13.6687C24.1723 13.3171 25.3208 13.5573 26.1199 14.3566C26.5003 14.7378 26.7659 15.2182 26.8863 15.7431C27.0067 16.268 26.977 16.8161 26.8007 17.3249L30.9574 21.4816C31.963 21.1348 33.123 21.3584 33.9257 22.1636C34.3278 22.5655 34.6016 23.0777 34.7124 23.6353C34.8233 24.1929 34.7662 24.7708 34.5484 25.2959C34.2564 26 33.6968 26.5593 32.9926 26.8509C32.2884 27.1425 31.4972 27.1425 30.793 26.8509C30.4442 26.7063 30.1273 26.4946 29.8605 26.2276C29.0168 25.3839 28.8083 24.1417 29.2348 23.1022L25.3583 19.2256V29.4269C25.6397 29.5662 25.8968 29.7498 26.1199 29.9707C26.6588 30.5096 26.9616 31.2406 26.9616 32.0027C26.9616 32.7649 26.6588 33.4958 26.1199 34.0348C25.581 34.5737 24.85 34.8764 24.0879 34.8764C23.3257 34.8765 22.5948 34.5737 22.0558 34.0348C21.6536 33.633 21.3796 33.121 21.2686 32.5634C21.1576 32.0059 21.2145 31.4279 21.4322 30.9028C21.5767 30.5541 21.7886 30.2373 22.0558 29.9707C22.3335 29.6941 22.6418 29.4843 22.9969 29.3437V19.0475C22.6445 18.9034 22.3246 18.6903 22.0558 18.4207C21.6523 18.0176 21.378 17.5035 21.2678 16.944C21.1576 16.3844 21.2165 15.8047 21.4371 15.2788L17.1833 11.0274L5.9567 22.2421C5.61873 22.5799 5.38854 23.0103 5.29526 23.4789C5.20197 23.9475 5.24978 24.4332 5.43264 24.8746C5.55416 25.1677 5.73224 25.434 5.9567 25.6582L22.3301 42.0292C22.5543 42.2535 22.8204 42.4314 23.1133 42.5529C23.7051 42.7978 24.3699 42.7978 24.9617 42.5529C25.2546 42.4314 25.5207 42.2535 25.7449 42.0292L42.0422 25.7578C42.2666 25.5335 42.4446 25.2673 42.5661 24.9742C42.6876 24.6812 42.7501 24.3671 42.7502 24.0498C42.7502 23.7325 42.6877 23.4184 42.5662 23.1253C42.4447 22.8322 42.2667 22.5659 42.0422 22.3417" fill="white"/>
</g>
</svg>
