<svg width="48" height="48" viewBox="0 0 48 48" fill="none" xmlns="http://www.w3.org/2000/svg">
<path d="M45.3596 2.64037C43.5986 0.879323 41.4796 0 39.0001 0H8.99985C6.52045 0 4.40142 0.879323 2.64037 2.64037C0.879323 4.40142 0 6.52045 0 8.99985V39.0001C0 41.4796 0.879323 43.5986 2.64037 45.3596C4.40142 47.1207 6.52045 48 8.99985 48H16.0008C16.4573 48 16.8008 47.9832 17.0315 47.9519C17.2998 47.8981 17.542 47.755 17.7186 47.5459C17.9468 47.3057 18.0622 46.9573 18.0622 46.5008L18.0453 44.3746C18.0357 43.0196 18.0309 41.948 18.0309 41.1552L17.3102 41.2801C16.8537 41.3642 16.2771 41.4003 15.578 41.3907C14.8492 41.3772 14.1229 41.3041 13.4061 41.172C12.643 41.0311 11.9247 40.7099 11.3111 40.235C10.6684 39.7488 10.189 39.0784 9.93683 38.313L9.62451 37.5923C9.36126 37.0237 9.03053 36.4889 8.63947 35.9994C8.1926 35.4156 7.73852 35.0216 7.27964 34.8125L7.06342 34.6564C6.91264 34.5484 6.7755 34.4226 6.65499 34.2816C6.53989 34.1508 6.44513 34.0034 6.37389 33.8443C6.31143 33.6978 6.36428 33.5777 6.53006 33.484C6.69823 33.3879 6.99855 33.3422 7.43821 33.3422L8.06287 33.4383C8.4785 33.52 8.99504 33.7699 9.60769 34.1855C10.2277 34.6082 10.7456 35.1638 11.1237 35.812C11.6042 36.6649 12.1808 37.316 12.8583 37.7653C13.5358 38.2121 14.2181 38.438 14.9052 38.438C15.5924 38.438 16.1858 38.3851 16.6879 38.2818C17.1735 38.1814 17.6453 38.0233 18.0934 37.8109C18.2808 36.4174 18.7901 35.3411 19.6238 34.5915C18.5436 34.4856 17.473 34.2977 16.4212 34.0293C15.3949 33.7474 14.4078 33.3382 13.483 32.8112C12.5153 32.2844 11.6607 31.5726 10.9675 30.7163C10.302 29.8826 9.75424 28.7894 9.32659 27.4368C8.90135 26.0818 8.68752 24.5177 8.68752 22.7471C8.68752 20.2268 9.50918 18.0814 11.1549 16.3083C10.3861 14.4151 10.4582 12.2889 11.3735 9.93683C11.979 9.74703 12.8751 9.88878 14.062 10.3573C15.2488 10.8258 16.1185 11.227 16.6711 11.5585C17.2237 11.8949 17.6657 12.176 17.9997 12.4042C19.9529 11.8607 21.9714 11.5874 23.9988 11.5922C26.0626 11.5922 28.0615 11.8637 30.0003 12.4042L31.1871 11.6546C32.1001 11.1065 33.063 10.6464 34.063 10.2804C35.1681 9.86235 36.009 9.74944 36.5952 9.93683C37.5322 12.2913 37.6139 14.4151 36.8427 16.3107C38.4884 18.0814 39.3125 20.2268 39.3125 22.7495C39.3125 24.5201 39.0987 26.089 38.671 27.4512C38.2458 28.8159 37.6932 29.909 37.0157 30.7331C36.3103 31.5785 35.4521 32.2835 34.4858 32.8112C33.4767 33.3734 32.4965 33.7795 31.5475 34.0293C30.4959 34.2985 29.4253 34.4873 28.345 34.5939C29.4261 35.5309 29.9691 37.0085 29.9691 39.029V46.5008C29.9691 46.854 30.0195 47.1399 30.1252 47.3585C30.1738 47.4639 30.2431 47.5583 30.329 47.6363C30.4148 47.7144 30.5155 47.7743 30.625 47.8126C30.8556 47.8943 31.0574 47.9471 31.2352 47.9664C31.413 47.9904 31.6677 47.9976 31.9992 47.9976H39.0001C41.4796 47.9976 43.5986 47.1183 45.3596 45.3572C47.1183 43.5986 48 41.4771 48 38.9977V8.99985C48 6.52045 47.1207 4.40142 45.3596 2.64037Z" fill="black"/>
</svg>
