<svg width="48" height="48" viewBox="0 0 48 48" fill="none" xmlns="http://www.w3.org/2000/svg">
<path d="M36.75 0H11.25C5.0368 0 0 5.0368 0 11.25V36.75C0 42.9632 5.0368 48 11.25 48H36.75C42.9632 48 48 42.9632 48 36.75V11.25C48 5.0368 42.9632 0 36.75 0Z" fill="#FF6C37"/>
<path d="M31.6989 16.6148L22.2227 26.0912L19.5502 23.419C28.8695 14.0998 29.7904 14.9083 31.6989 16.6148Z" fill="#EEEEEE"/>
<path d="M22.2227 26.3157C22.1552 26.3157 22.1104 26.2933 22.0654 26.2483L19.3706 23.5761C19.3494 23.5558 19.3324 23.5315 19.3208 23.5044C19.3093 23.4774 19.3033 23.4484 19.3033 23.419C19.3033 23.3896 19.3093 23.3605 19.3208 23.3335C19.3324 23.3065 19.3494 23.2821 19.3706 23.2618C28.8471 13.7852 29.835 14.6835 31.8338 16.48C31.8788 16.525 31.9011 16.57 31.9011 16.6373C31.9011 16.7048 31.8788 16.7496 31.8338 16.7942L22.3573 26.2483C22.335 26.2933 22.2675 26.3157 22.2227 26.3157ZM19.8647 23.419L22.2227 25.7768L31.3622 16.6373C29.7006 15.1551 28.5776 14.706 19.8647 23.419Z" fill="#FF6C37"/>
<path d="M24.9397 28.8084L22.3573 26.226L31.8337 16.7498C34.3714 19.3095 30.5762 23.4639 24.9397 28.8084Z" fill="#EEEEEE"/>
<path d="M24.9398 29.033C24.8723 29.033 24.8276 29.0105 24.7826 28.9655L22.2002 26.3831C22.1552 26.3383 22.1552 26.2933 22.1552 26.226C22.1552 26.1585 22.1777 26.1136 22.2227 26.0686L31.699 16.5924C31.7192 16.5711 31.7436 16.5542 31.7707 16.5426C31.7977 16.531 31.8268 16.525 31.8562 16.525C31.8856 16.525 31.9147 16.531 31.9417 16.5426C31.9687 16.5542 31.9931 16.5711 32.0134 16.5924C32.3001 16.8577 32.5267 17.1814 32.6777 17.5416C32.8288 17.9019 32.9009 18.2903 32.8892 18.6808C32.8444 21.1732 30.0148 24.3395 25.1194 28.9655C25.0521 29.0105 24.9846 29.033 24.9398 29.033ZM22.6718 26.226C24.1088 27.6855 24.7153 28.2695 24.9398 28.494C28.7125 24.9011 32.3727 21.2182 32.3951 18.6808C32.4176 18.0969 32.1932 17.513 31.8113 17.0638L22.6718 26.226Z" fill="#FF6C37"/>
<path d="M19.5953 23.4862L21.504 25.3949C21.5488 25.4399 21.5488 25.4848 21.504 25.5298C21.4815 25.5523 21.4815 25.5523 21.4592 25.5523L17.5067 26.4056C17.3048 26.4281 17.1251 26.2933 17.0801 26.0911C17.0576 25.9788 17.1026 25.8667 17.1701 25.7992L19.4604 23.5087C19.5054 23.4637 19.5728 23.4412 19.5953 23.4862Z" fill="#EEEEEE"/>
<path d="M17.4394 26.6303C17.1027 26.6303 16.8555 26.3606 16.8555 26.0237C16.8555 25.8668 16.923 25.7095 17.0353 25.5971L19.3257 23.3066C19.4605 23.1943 19.6403 23.1943 19.7749 23.3066L21.6837 25.2154C21.8183 25.3277 21.8183 25.5298 21.6837 25.6645C21.6387 25.7095 21.5938 25.732 21.5263 25.7545L17.5742 26.6078C17.5292 26.6078 17.4842 26.6303 17.4394 26.6303ZM19.528 23.7332L17.3273 25.9339C17.2823 25.9789 17.2598 26.0462 17.3048 26.1135C17.3273 26.181 17.3944 26.2035 17.4619 26.181L21.1671 25.3725L19.528 23.7332Z" fill="#FF6C37"/>
<path d="M36.7067 11.3603C35.2695 9.96811 32.9565 10.0129 31.5641 11.4726C30.172 12.9321 30.217 15.2226 31.6765 16.615C32.2527 17.1717 32.9969 17.5221 33.7931 17.6115C34.5893 17.7008 35.3927 17.5242 36.078 17.109L33.5179 14.5489L36.7067 11.3603Z" fill="#EEEEEE"/>
<path d="M34.1915 17.85C32.0583 17.85 30.3292 16.1209 30.3292 13.9875C30.3292 11.8541 32.0583 10.125 34.1915 10.125C35.1797 10.125 36.1453 10.5068 36.8638 11.2029C36.9088 11.2479 36.9313 11.2929 36.9313 11.3601C36.9313 11.4276 36.9088 11.4726 36.8638 11.5174L33.8323 14.5489L36.2126 16.9292C36.3026 17.0192 36.3026 17.1538 36.2126 17.2436L36.1678 17.2886C35.5839 17.6477 34.8877 17.85 34.1915 17.85ZM34.1915 10.5967C32.3053 10.5967 30.7783 12.1236 30.8008 14.01C30.8008 15.8963 32.3276 17.4233 34.214 17.4009C34.7306 17.4009 35.247 17.2884 35.7185 17.0415L33.3607 14.7062C33.3157 14.6612 33.2934 14.6162 33.2934 14.5489C33.2934 14.4814 33.3157 14.4366 33.3607 14.3917L36.3699 11.3826C35.7635 10.8662 35 10.5967 34.1915 10.5967Z" fill="#FF6C37"/>
<path d="M36.774 11.4276L36.7292 11.3826L33.5179 14.5489L36.0555 17.0865C36.3026 16.9292 36.5494 16.7498 36.7517 16.5476C37.0919 16.2144 37.3626 15.8169 37.5481 15.3782C37.7336 14.9396 37.8301 14.4685 37.8322 13.9923C37.8343 13.516 37.7418 13.0441 37.5602 12.6038C37.3785 12.1636 37.1113 11.7638 36.774 11.4276Z" fill="#EEEEEE"/>
<path d="M36.078 17.3334C36.0105 17.3334 35.9657 17.3109 35.9207 17.2659L33.3608 14.706C33.3158 14.661 33.2935 14.6162 33.2935 14.5489C33.2935 14.4814 33.3158 14.4364 33.3608 14.3916L36.5494 11.2031C36.6394 11.1131 36.774 11.1131 36.8638 11.2031L36.9313 11.2481C38.4358 12.7524 38.4358 15.1777 36.9538 16.7049C36.7292 16.9294 36.4821 17.1315 36.2126 17.2886C36.1453 17.3111 36.1005 17.3334 36.078 17.3334ZM33.8323 14.5489L36.1005 16.8169C36.2801 16.7047 36.4598 16.5474 36.5944 16.4126C37.8745 15.1326 37.9418 13.0442 36.7067 11.697L33.8323 14.5489Z" fill="#FF6C37"/>
<path d="M32.0809 17.0188C31.8217 16.76 31.4703 16.6146 31.104 16.6146C30.7377 16.6146 30.3864 16.76 30.1271 17.0188L21.6611 25.4848L23.076 26.8995L32.0359 19.04C32.6198 18.5458 32.6646 17.67 32.1707 17.0863C32.1257 17.0638 32.1032 17.0413 32.0809 17.0188Z" fill="#EEEEEE"/>
<path d="M23.0535 27.1241C22.9862 27.1241 22.9412 27.1016 22.8962 27.0568L21.4815 25.6421C21.4602 25.6218 21.4433 25.5974 21.4317 25.5704C21.4201 25.5434 21.4141 25.5143 21.4141 25.4849C21.4141 25.4555 21.4201 25.4264 21.4317 25.3994C21.4433 25.3723 21.4602 25.348 21.4815 25.3277L29.9473 16.8617C30.096 16.7122 30.2727 16.5936 30.4673 16.5127C30.6619 16.4318 30.8706 16.3901 31.0814 16.3901C31.2922 16.3901 31.5009 16.4318 31.6955 16.5127C31.8901 16.5936 32.0669 16.7122 32.2155 16.8617C32.365 17.0103 32.4836 17.187 32.5645 17.3816C32.6455 17.5763 32.6871 17.785 32.6871 17.9958C32.6871 18.2066 32.6455 18.4153 32.5645 18.6099C32.4836 18.8045 32.365 18.9812 32.2155 19.1299L32.1482 19.1972L23.1881 27.0568C23.1658 27.1016 23.1208 27.1241 23.0535 27.1241ZM21.9756 25.4848L23.076 26.5852L31.8787 18.8602C32.3726 18.456 32.4176 17.715 32.0134 17.2211C31.6091 16.7271 30.8681 16.6822 30.3741 17.0861C30.3517 17.1086 30.3292 17.1311 30.2842 17.1536L21.9756 25.4848Z" fill="#FF6C37"/>
<path d="M15.1714 35.1187C15.0814 35.1635 15.0366 35.2533 15.0589 35.3431L15.4408 36.9601C15.5308 37.1846 15.3958 37.4542 15.1489 37.5215C14.9693 37.5888 14.7673 37.5215 14.655 37.3869L12.1847 34.9391L20.2464 26.8773L23.031 26.9221L24.9173 28.8086C24.4682 29.1903 21.7509 31.8176 15.1714 35.1187Z" fill="#EEEEEE"/>
<path d="M14.9918 37.7458C14.8121 37.7458 14.6325 37.6785 14.5202 37.5439L12.0724 35.0961C12.0274 35.0513 12.0051 35.0063 12.0051 34.939C12.0051 34.8717 12.0276 34.8266 12.0726 34.7816L20.1341 26.7201C20.1791 26.6751 20.2464 26.6526 20.2914 26.6526L23.076 26.6976C23.1433 26.6976 23.1881 26.7201 23.2329 26.7649L25.1194 28.6511C25.1644 28.6961 25.1867 28.7635 25.1867 28.8308C25.1867 28.8983 25.1644 28.9431 25.0969 28.9881L24.9398 29.1229C22.5594 31.2111 19.3256 33.2997 15.306 35.2982L15.6879 36.8925C15.7553 37.1845 15.6204 37.4989 15.351 37.656C15.2162 37.7233 15.1041 37.7458 14.9918 37.7458ZM12.5214 34.939L14.8346 37.2295C14.9018 37.3418 15.0366 37.3866 15.1489 37.3193C15.2612 37.252 15.3062 37.1171 15.2389 37.0048L14.8571 35.388C14.8121 35.1859 14.9018 35.0063 15.0816 34.9165C19.0562 32.9179 22.2675 30.852 24.6253 28.8085L22.9637 27.1466L20.3813 27.1017L12.5214 34.939Z" fill="#FF6C37"/>
<path d="M10.2759 36.8702L12.2072 34.939L15.0815 37.8133L10.5005 37.4991C10.2984 37.4766 10.1636 37.297 10.1861 37.0947C10.1861 37.0048 10.2084 36.915 10.2759 36.8702Z" fill="#EEEEEE"/>
<path d="M15.0816 38.0155L10.4781 37.701C10.1411 37.6785 9.91649 37.3868 9.93899 37.0499C9.96149 36.915 10.0065 36.7804 10.1188 36.6906L12.0501 34.7594C12.0703 34.7381 12.0947 34.7211 12.1217 34.7095C12.1487 34.698 12.1778 34.692 12.2072 34.692C12.2366 34.692 12.2656 34.698 12.2927 34.7095C12.3197 34.7211 12.344 34.7381 12.3643 34.7594L15.2387 37.6337C15.3062 37.701 15.3287 37.7909 15.2837 37.8809C15.2387 37.9707 15.1712 38.0155 15.0816 38.0155ZM12.2072 35.2534L10.4331 37.0274C10.3657 37.0724 10.3657 37.1847 10.4331 37.2295C10.4556 37.252 10.4781 37.2745 10.5231 37.2745L14.4977 37.5439L12.2072 35.2534ZM19.4604 27.9104C19.3256 27.9104 19.2358 27.798 19.2358 27.6857C19.2358 27.6184 19.2583 27.5736 19.3033 27.5286L21.4815 25.3504C21.5018 25.3291 21.5261 25.3121 21.5532 25.3005C21.5802 25.2889 21.6093 25.283 21.6387 25.283C21.6681 25.283 21.6972 25.2889 21.7242 25.3005C21.7513 25.3121 21.7757 25.3291 21.7959 25.3504L23.2106 26.7651C23.2779 26.8324 23.3004 26.8997 23.2779 26.9897C23.2554 27.057 23.1881 27.1244 23.0985 27.1469L19.5054 27.9104H19.4604ZM21.6386 25.822L20.1566 27.3042L22.5817 26.7874L21.6386 25.822Z" fill="#FF6C37"/>
<path d="M23.031 26.922L20.5609 27.461C20.3812 27.506 20.2014 27.3937 20.1566 27.2141C20.1341 27.1018 20.1566 26.9895 20.2464 26.8997L21.6161 25.5298L23.031 26.922Z" fill="#EEEEEE"/>
<path d="M20.5159 27.6857C20.4419 27.6865 20.3686 27.6724 20.3002 27.6445C20.2317 27.6166 20.1695 27.5752 20.1172 27.523C20.065 27.4707 20.0236 27.4085 19.9957 27.34C19.9677 27.2716 19.9537 27.1983 19.9545 27.1243C19.9545 26.9672 20.0218 26.8324 20.1116 26.7203L21.4815 25.3504C21.5018 25.3291 21.5261 25.3121 21.5532 25.3005C21.5802 25.2889 21.6093 25.2829 21.6387 25.2829C21.6681 25.2829 21.6972 25.2889 21.7243 25.3005C21.7513 25.3121 21.7757 25.3291 21.7959 25.3504L23.2106 26.7651C23.2779 26.8324 23.3004 26.8997 23.2779 26.9897C23.2554 27.057 23.1881 27.1243 23.0985 27.1468L20.6282 27.6857H20.5159ZM21.6386 25.8219L20.4261 27.0345C20.3812 27.0795 20.3812 27.1243 20.4036 27.1693C20.4261 27.2141 20.4711 27.2366 20.5384 27.2366L22.6042 26.7874L21.6386 25.8219ZM36.7965 13.5831C36.7517 13.4485 36.5944 13.3811 36.4596 13.4261C36.3249 13.4708 36.2576 13.6281 36.3026 13.7629C36.3026 13.7854 36.3249 13.8079 36.3249 13.8302C36.4596 14.0998 36.4149 14.4366 36.2351 14.6835C36.1453 14.796 36.1678 14.9531 36.2576 15.043C36.3699 15.1326 36.5271 15.1105 36.6169 14.998C36.9538 14.5712 37.0211 14.0323 36.7965 13.5831Z" fill="#FF6C37"/>
</svg>
