<svg width="48" height="48" viewBox="0 0 48 48" fill="none" xmlns="http://www.w3.org/2000/svg">
<path d="M46.303 5.05489L36.4193 0.296448C35.8611 0.0273258 35.2331 -0.0614847 34.6222 0.0423277C34.0113 0.14614 33.4478 0.437433 33.0099 0.875826L0.655606 30.3727C0.263053 30.7289 0.0280728 31.2264 0.00235596 31.7558C-0.0233609 32.2853 0.162292 32.8033 0.518475 33.1958C0.561328 33.2421 0.604181 33.2867 0.650463 33.3278L3.29194 35.7276C3.63711 36.0418 4.0814 36.2251 4.54766 36.2457C5.01392 36.2664 5.47269 36.1231 5.84429 35.8407L44.8151 6.28906C45.1095 6.0657 45.4604 5.92893 45.8282 5.89415C46.1961 5.85938 46.5664 5.92798 46.8974 6.09223C47.2284 6.25648 47.507 6.50987 47.7018 6.82386C47.8966 7.13785 47.9998 7.49998 48 7.8695V7.75465C48 7.19053 47.8407 6.63788 47.5405 6.16027C47.2403 5.68267 46.8113 5.29951 46.303 5.05489Z" fill="#0065A9"/>
<path d="M46.303 42.6633L36.4193 47.4234C35.861 47.6918 35.2331 47.7802 34.6224 47.6764C34.0117 47.5726 33.4482 47.2818 33.0099 46.8441L0.655606 17.3455C0.263053 16.9893 0.0280728 16.4918 0.00235596 15.9623C-0.0233609 15.4329 0.162292 14.9149 0.518475 14.5223C0.561328 14.476 0.604181 14.4315 0.650463 14.3903L3.29194 11.9906C3.63746 11.6751 4.08277 11.491 4.55018 11.4703C5.01758 11.4496 5.47741 11.5937 5.84943 11.8774L44.8151 41.4291C45.1095 41.6525 45.4604 41.7892 45.8282 41.824C46.1961 41.8588 46.5664 41.7902 46.8974 41.6259C47.2284 41.4617 47.507 41.2083 47.7018 40.8943C47.8966 40.5803 47.9998 40.2182 48 39.8487V39.9721C47.9982 40.5347 47.838 41.0855 47.5379 41.5614C47.2378 42.0373 46.8099 42.4191 46.303 42.6633Z" fill="#007ACC"/>
<path d="M36.4192 47.4235C35.8609 47.6918 35.233 47.7802 34.6223 47.6764C34.0116 47.5727 33.4482 47.2818 33.0098 46.8441C33.256 47.087 33.5684 47.2519 33.9078 47.3181C34.2473 47.3843 34.5987 47.3488 34.9181 47.2161C35.2375 47.0834 35.5106 46.8594 35.7033 46.5722C35.8959 46.2849 35.9995 45.9472 36.001 45.6013V2.11718C36.0013 1.7697 35.8984 1.42996 35.7055 1.14099C35.5125 0.852016 35.2381 0.626816 34.9171 0.493915C34.596 0.361014 34.2427 0.326393 33.902 0.394438C33.5612 0.462482 33.2483 0.63013 33.003 0.876145C33.441 0.437911 34.0043 0.1466 34.6151 0.0424991C35.2259 -0.0616018 35.8539 0.0266514 36.4124 0.295054L46.2944 5.04663C46.8043 5.29004 47.235 5.67267 47.5368 6.15037C47.8386 6.62806 47.9991 7.18136 47.9999 7.7464V39.9721C48.0001 40.5367 47.8407 41.0899 47.5401 41.5678C47.2396 42.0458 46.8101 42.4291 46.3012 42.6736L36.4192 47.4235Z" fill="#1F9CF0"/>
</svg>
