<svg width="49" height="48" viewBox="0 0 49 48" fill="none" xmlns="http://www.w3.org/2000/svg">
<g clip-path="url(#clip0_18_51)">
<path d="M4.73886 29.28C4.38749 29.3723 3.88536 29.6621 3.64836 29.9126L3.41511 30.1481L3.35024 29.3186H2.49036L2.47086 32.325L2.45624 35.3374H3.43499L3.46274 33.3784C3.49499 31.1678 3.53399 30.9578 3.95211 30.5306C4.25586 30.2213 4.73211 30.0491 5.14836 30.0964C5.49936 30.135 5.74386 30.2929 5.92911 30.6083C6.05361 30.8198 6.06036 30.9709 6.08174 33.0825L6.10124 35.3374H7.07999L7.09911 33.2467C7.11861 31.2409 7.12536 31.1483 7.26486 30.8846C7.77374 29.9449 9.11699 29.8009 9.55874 30.6356C9.69186 30.8846 9.69861 31.023 9.71811 33.1147L9.74399 35.3374H10.6642L10.6432 32.8845L10.6237 30.4373L10.4381 30.0896C10.0286 29.3126 8.89686 29.0104 7.95936 29.4184C7.80636 29.4851 7.51536 29.7015 7.31061 29.8912C6.96786 30.2149 6.93374 30.2347 6.86211 30.1162C6.68961 29.82 6.40499 29.5567 6.12036 29.4187C5.78249 29.2669 5.06886 29.1893 4.73886 29.28Z" fill="white"/>
<path d="M12.9776 29.2864C12.1778 29.457 11.4041 30.0289 11.1 30.6874C10.6301 31.6811 10.6496 33.1084 11.1458 34.0736C11.6494 35.0606 12.9518 35.6261 14.1349 35.3824C15.7496 35.0411 16.5022 33.9161 16.3897 32.016C16.3702 31.6871 16.3103 31.2731 16.2517 31.0826C16.0275 30.3656 15.3791 29.6944 14.6505 29.4244C14.2211 29.2605 13.4145 29.1956 12.9776 29.2864ZM14.3336 30.2344C15.0409 30.5625 15.3851 31.2405 15.3791 32.3119C15.3724 33.3979 15.0551 34.074 14.3936 34.4104C13.95 34.6391 13.2101 34.6459 12.7988 34.4366C12.5156 34.2851 12.1778 33.9424 12.0184 33.6398C11.7206 33.0675 11.7079 31.7329 11.9925 31.122C12.3098 30.4313 12.8333 30.0893 13.566 30.0829C13.8848 30.0765 14.0831 30.1151 14.3336 30.2344ZM18.7913 29.3059C18.321 29.4439 18.0368 29.6018 17.7653 29.8781C17.6205 30.0229 17.4806 30.1414 17.4548 30.1414C17.4285 30.1414 17.4026 29.9513 17.4026 29.7139V29.28L16.9916 29.2988L16.5754 29.3186L16.5559 32.3246L16.5424 35.337H17.5343V33.4433C17.541 31.4438 17.5733 31.1153 17.838 30.7204C18.0236 30.4305 18.5194 30.1541 18.9566 30.096C19.5844 30.0098 20.2264 30.3724 20.3715 30.8974C20.4184 31.0631 20.4443 31.923 20.4443 33.2464V35.337H21.4425L21.423 32.9831L21.4035 30.6356L21.231 30.2666C21.0326 29.8523 20.7356 29.5823 20.2658 29.3985C19.8559 29.2403 19.1745 29.1949 18.7913 29.3059ZM23.6175 29.2796C22.6196 29.4975 21.9124 30.2539 21.6345 31.3916C21.5093 31.8971 21.5288 32.8579 21.6668 33.3311C22.0718 34.7261 22.9706 35.4169 24.273 35.3243C24.7755 35.2849 25.2124 35.1143 25.5487 34.818C25.7738 34.6204 25.7944 34.6136 25.8338 34.7389C25.9001 34.9553 25.7944 35.8035 25.6676 36.093C25.4175 36.6593 24.9214 36.9154 24.0874 36.9154C23.3411 36.9094 22.8371 36.6326 22.7186 36.153C22.686 36.0281 22.6196 35.9955 22.3755 35.9618C22.2222 35.945 22.0698 35.921 21.9188 35.8898C21.7804 35.8635 21.7658 35.8834 21.7658 36.1403C21.7725 36.771 22.2488 37.3238 23.016 37.587C23.3546 37.7059 23.5984 37.7381 24.1136 37.7381C25.305 37.7381 26.1244 37.317 26.5211 36.5078C26.8185 35.9093 26.8658 35.2121 26.8444 32.016L26.8249 29.319H25.965L25.9455 29.6621C25.9327 29.8523 25.9065 30.0098 25.8874 30.0098C25.866 30.0098 25.7475 29.9183 25.6155 29.8065C25.113 29.3663 24.2535 29.1416 23.6179 29.28L23.6175 29.2796ZM24.9214 30.2404C25.107 30.3394 25.344 30.5168 25.4434 30.6484C26.1844 31.6144 26.0445 33.6071 25.1854 34.2248C24.3458 34.8311 23.1754 34.5011 22.7591 33.5486C22.5465 33.0611 22.4944 31.9571 22.6601 31.359C22.785 30.8775 23.1413 30.4178 23.5463 30.2078C23.9021 30.0165 24.4973 30.0289 24.9214 30.2404ZM29.0734 29.3123C28.5255 29.4701 28.3598 29.5496 27.9956 29.826C27.288 30.3529 26.9584 31.1606 26.9648 32.3438C26.9648 33.2059 27.0968 33.726 27.4541 34.2788C27.9304 35.0085 28.7434 35.4169 29.7349 35.4236C30.8794 35.4296 31.785 34.9223 32.2417 34.0219L32.4728 33.5618L32.6775 33.9825C33.4253 35.5549 35.7664 35.9355 37.0961 34.7126C37.3073 34.5214 37.5386 34.2529 37.605 34.1276C37.6781 33.996 37.7494 33.8903 37.7689 33.8903C37.7903 33.8903 37.8619 34.0286 37.9282 34.2056C38.2601 34.9958 39.0795 35.4296 40.2495 35.4229C40.9309 35.4229 41.4334 35.2984 41.8901 35.0085C42.1616 34.8379 42.5974 34.35 42.5974 34.212C42.5974 34.1861 42.63 34.0808 42.6705 33.9833L42.7354 33.7976L42.927 34.1276C43.755 35.5744 46.0631 35.8961 47.3183 34.7453C47.643 34.443 48.0855 33.6611 47.9801 33.5618C47.9471 33.5295 47.7229 33.4755 47.4776 33.4493L47.0423 33.3911L46.9346 33.6139C46.6372 34.2315 46.2146 34.542 45.5737 34.5941C44.5612 34.6868 43.8004 34.0609 43.602 32.9899C43.5694 32.7994 43.5562 32.6273 43.5757 32.6074C43.5952 32.5883 44.6213 32.5751 45.8501 32.5751H48.0851V32.2208C48.0851 31.7655 47.9993 31.3185 47.8159 30.8321C47.6025 30.2663 46.956 29.6359 46.3676 29.4184C45.7316 29.181 44.8522 29.1956 44.2245 29.4506C43.173 29.8781 42.537 30.9446 42.5306 32.2661V32.7199L42.2674 32.4889C41.9824 32.253 41.4142 32.0224 40.515 31.7865C39.5085 31.5233 39.1718 31.3913 38.9933 31.1865C38.8016 30.9578 38.7885 30.8066 38.9269 30.543C39.0795 30.2404 39.5018 30.0765 40.131 30.0765C40.851 30.0765 41.175 30.2404 41.4075 30.714C41.5387 30.9833 41.5988 31.0485 41.7049 31.029C41.8537 31.003 42.0033 30.9813 42.1534 30.9641C42.5243 30.9184 42.552 30.8194 42.3064 30.2993C41.9827 29.6081 41.235 29.2538 40.1183 29.2605C39.5948 29.2665 39.3769 29.2928 39.0667 29.418C38.3918 29.6749 38.0081 30.1286 37.9087 30.7931L37.8619 31.0958L37.6571 30.7005C36.6259 28.7269 33.5569 28.7678 32.6385 30.7658L32.4728 31.128L32.2417 30.6683C31.9504 30.0893 31.494 29.6813 30.873 29.4439C30.3236 29.2339 29.5564 29.1803 29.0734 29.3123ZM30.5479 30.2471C31.2289 30.582 31.5671 31.2668 31.5671 32.3115C31.5604 33.7583 30.8925 34.6136 29.7675 34.6136C29.0798 34.6136 28.5045 34.2315 28.194 33.5816C28.0298 33.2269 28.0151 33.1406 28.0151 32.3119C28.0151 31.3444 28.0883 31.0695 28.4719 30.6206C28.9286 30.0829 29.8669 29.9119 30.5479 30.2471ZM35.8118 30.174C36.1305 30.3053 36.5595 30.7009 36.7121 30.9968C37.0035 31.5623 37.0489 32.7458 36.8119 33.4365C36.6788 33.825 36.3158 34.2525 35.9644 34.4235C35.3693 34.7261 34.5094 34.6264 34.0204 34.1985C33.2141 33.4954 33.1148 31.5233 33.8479 30.6746C34.3046 30.1346 35.1836 29.9186 35.8118 30.174ZM46.0485 30.2014C46.5724 30.4245 46.962 30.9574 46.9819 31.4764L46.9946 31.7524H43.6234L43.6429 31.5555C43.6879 31.0028 44.0715 30.4845 44.6149 30.2145C44.9711 30.0356 45.6521 30.0285 46.0485 30.2014ZM38.4049 32.0614C38.6696 32.3051 39.0405 32.4499 40.2173 32.7649C40.7783 32.9164 41.3149 33.0953 41.4075 33.1605C41.9764 33.5681 41.679 34.3568 40.8773 34.5488C40.401 34.659 39.7537 34.6009 39.3705 34.404C39.1054 34.2724 39.0255 34.1794 38.8613 33.8318L38.6632 33.4238L37.8832 33.5018L37.9286 33.1928C37.9478 33.0221 37.9691 32.5684 37.9691 32.1866V31.4891L38.094 31.6875C38.1593 31.7933 38.2991 31.9639 38.4049 32.0614ZM27.534 9.46651C26.9306 9.49089 25.9148 9.65214 25.9148 9.72039C25.9148 9.74926 26.6318 10.1074 26.6854 10.1074C26.7375 10.1074 27.57 10.5236 27.7534 10.6388C27.9956 10.7925 28.1677 10.9331 28.1175 10.9331C28.0852 10.9331 27.2299 10.6031 26.9062 10.4629C26.643 10.3508 25.5473 10.0256 25.0125 9.89889C24.7249 9.83214 24.603 9.80626 24.1118 9.71701C23.3869 9.58389 22.5368 9.57714 22.1644 9.69901C21.6345 9.87151 21.5156 10.0826 21.5156 10.8645C21.5156 11.2939 21.5366 11.4773 21.6311 11.8643C21.6701 12.033 21.7856 12.4024 21.8411 12.528C21.8554 12.5666 21.9056 12.6885 21.9484 12.7976C21.9919 12.9049 22.122 13.1813 22.2371 13.407C22.8825 14.6865 23.8485 15.7545 25.2109 16.6939C25.6395 16.9883 26.8091 17.5478 27.2771 17.6813C27.396 17.7135 27.4361 17.7818 27.339 17.7818C27.2299 17.7818 26.2433 17.5084 26.04 17.4225C25.9629 17.389 25.8848 17.3581 25.8056 17.3299C25.1036 17.0453 24.2059 16.4618 23.463 15.7984C22.649 15.0744 21.9983 14.1854 21.5543 13.1906C21.2704 12.549 21.0769 11.7994 21.0296 11.1473C21.0007 10.7753 20.9715 10.6841 20.8736 10.689C20.8414 10.689 20.5354 10.6778 20.1953 10.6601C19.2773 10.6208 18.0188 10.7216 16.7753 10.9365C14.3951 11.3408 11.8283 12.2771 9.18525 13.7048C8.7455 13.942 8.31114 14.189 7.8825 14.4458C7.83263 14.475 7.67438 14.5706 7.53 14.6621C7.38563 14.7514 7.21613 14.8526 7.15463 14.8909C7.01813 14.9696 5.50763 15.9953 5.32763 16.1314C5.259 16.182 5.07038 16.3219 4.9125 16.4355C4.1955 16.9676 2.63363 18.24 2.54438 18.3686C2.50013 18.4335 2.56838 18.4661 2.66288 18.4335C2.70975 18.4159 2.83163 18.3915 2.92913 18.3765C3.03038 18.3623 3.29025 18.294 3.50663 18.2228C3.68031 18.1674 3.85483 18.1146 4.03013 18.0645C4.563 17.9396 4.779 17.8958 5.09325 17.85C5.23313 17.8305 5.44275 17.7998 5.56163 17.7818C7.02638 17.5654 7.72538 17.5118 8.37675 17.5624C9.79463 17.6779 11.1503 17.9168 11.9261 18.1931C12.5063 18.4013 13.6879 19.0399 14.2084 19.4239C14.5076 19.6496 15.4733 20.6108 15.6859 20.9014C15.852 21.1309 16.0354 21.3308 16.0796 21.3308C16.0924 21.3308 16.1119 20.5991 16.1153 19.707L16.125 18.0859L18.0221 18.0746C19.5146 18.0679 19.929 18.0795 19.9553 18.1121C19.9909 18.1579 20.0771 18.3116 20.3614 18.8385C20.6333 19.3444 20.7664 19.5878 20.8489 19.7359C20.8916 19.8143 20.9921 20.001 21.0769 20.1469C21.1545 20.295 21.3026 20.5669 21.4031 20.7533C21.5044 20.9408 21.5872 21.0983 21.5872 21.1046C21.5872 21.1373 21.735 21.3308 21.7612 21.3308C21.7763 21.3308 21.8111 21.2768 21.8363 21.2171C21.8655 21.1515 21.9413 21.009 22.002 20.9014C22.0669 20.7926 22.182 20.5811 22.2619 20.4349C22.3414 20.2868 22.4505 20.0839 22.5075 19.9864C22.6665 19.7033 22.8323 19.3946 22.9688 19.1441C23.0374 19.0144 23.1465 18.8141 23.2095 18.6953C23.2744 18.5768 23.3689 18.4095 23.4195 18.3184C23.4562 18.247 23.4975 18.1781 23.5433 18.1121C23.5706 18.0795 23.9966 18.0679 25.5326 18.0746L27.4838 18.0859L27.4931 21.2528C27.5018 23.748 27.5111 24.4144 27.5486 24.4144C27.5693 24.411 27.7144 24.3281 27.8625 24.2243C28.0706 24.078 28.1614 23.9888 28.2574 23.823C28.4786 23.4473 29.1011 22.8555 29.5204 22.626C30.0285 22.345 30.5751 22.1398 31.1426 22.017C31.7201 21.8951 31.8889 21.8771 33.1976 21.8295C35.5875 21.747 35.9419 21.732 35.9599 21.7144C35.9692 21.7043 35.937 21.6101 35.8916 21.5029C35.8414 21.399 35.7536 21.2055 35.6929 21.0773C35.4656 20.5845 35.4656 20.4206 35.703 20.1795C35.8654 20.0123 36.2831 19.8645 37.0016 19.7213C37.1205 19.695 37.2682 19.6643 37.3305 19.6414C37.3905 19.6238 37.467 19.6106 37.4993 19.6106C37.5889 19.6106 38.307 19.4333 38.4585 19.3766C38.5628 19.3343 39.1249 19.2124 39.7961 19.0826C40.0875 19.0256 40.845 18.8745 41.4724 18.7489C41.8691 18.6709 42.2835 18.588 42.3911 18.567C42.4999 18.5445 42.6544 18.5134 42.7339 18.4988C42.8134 18.4808 42.9176 18.4598 42.9683 18.4515C43.0181 18.4403 43.272 18.3915 43.527 18.3379C43.7196 18.2959 43.9132 18.2584 44.1075 18.2254C44.2879 18.2078 45.6473 17.8811 45.9608 17.7818C46.4584 17.6198 46.6058 17.556 46.92 17.3445C47.2598 17.1135 47.3524 16.9883 47.6873 16.3219C48.0596 15.5794 48.1133 15.4538 48.2175 15.1418C48.3795 14.6445 48.3701 14.4544 48.1631 14.2463C48.0206 14.103 47.7101 13.9549 47.4825 13.9223C47.3138 13.9016 47.2924 13.9076 47.2076 13.9988C47.1574 14.0528 47.115 14.1158 47.115 14.1386C47.115 14.1694 47.0565 14.3291 46.8956 14.7161C46.881 14.7548 46.8488 14.8526 46.8225 14.9303C46.7974 15.0154 46.7675 15.099 46.7329 15.1808C46.686 15.2816 46.683 15.2636 46.7002 14.9839C46.7183 14.7075 46.7659 14.475 46.8698 14.1244C46.8878 14.0561 46.9136 13.9403 46.923 13.8686L46.941 13.7404L46.5671 13.5893C46.2593 13.4634 45.9528 13.3344 45.6476 13.2023C45.5275 13.1547 45.407 13.1081 45.2861 13.0624C45.1611 13.0171 45.0377 12.9677 44.916 12.9143C44.7907 12.8596 44.6644 12.8071 44.5373 12.7568C44.2946 12.6641 43.4509 12.3784 42.7339 12.1519C42.5389 12.0904 41.4041 11.7506 41.292 11.718C41.1233 11.6745 40.9554 11.6278 40.7884 11.5781C40.7295 11.5635 40.5896 11.5249 40.4809 11.4953C39.8471 11.3198 39.681 11.2759 39.4534 11.2121C39.3281 11.1749 39.2018 11.1414 39.0746 11.1116C39.0064 11.0936 38.8196 11.0501 38.6599 11.0108C37.9699 10.8477 37.2791 10.6879 36.5876 10.5315C36.4371 10.4959 36.2863 10.4611 36.1354 10.4273C36.028 10.4034 35.9201 10.3818 35.8118 10.3624C35.6613 10.3349 35.5113 10.3051 35.3617 10.2731C35.1275 10.227 34.8927 10.1835 34.6575 10.1426C34.4474 10.105 34.2372 10.0682 34.0268 10.0324C33.0323 9.85351 32.9632 9.84226 31.1786 9.64539C30.078 9.52051 28.6001 9.41664 28.2394 9.43389C28.0042 9.44182 27.7692 9.4527 27.5344 9.46651H27.534ZM23.3659 11.2335C24.3165 11.5429 25.2435 11.9618 25.8791 12.3698C26.3828 12.6968 27.0105 13.2173 27.1796 13.4498L27.2528 13.5473L27.1144 13.4933C27.0394 13.461 26.8804 13.3928 26.7619 13.3358C26.1281 13.0414 26.0595 13.0151 26.0595 13.0808C26.0595 13.0984 26.2072 13.3358 26.3827 13.6005C26.5635 13.8686 26.7079 14.1064 26.7079 14.127C26.7079 14.145 26.6396 14.1158 26.5568 14.0588C26.232 13.8364 25.4708 13.518 25.4269 13.5825C25.4175 13.6005 25.6519 13.8983 25.9504 14.2463C26.2459 14.5939 26.4915 14.8913 26.4915 14.9123C26.4915 14.9666 26.4334 14.9595 26.1604 14.8586C25.8791 14.7581 25.8056 14.7484 25.8056 14.8151C25.8056 14.862 26.4154 15.6833 26.6576 15.9679C26.7259 16.0455 26.7795 16.1205 26.7795 16.1385C26.7795 16.2248 25.9358 15.6765 25.3376 15.2033C24.4826 14.5226 23.6565 13.6069 23.2208 12.8513C22.8649 12.2336 22.7415 11.9003 22.7415 11.5343C22.7415 11.3198 22.7528 11.2759 22.8326 11.2013C22.8784 11.1506 22.9365 11.1113 22.9575 11.1113C22.98 11.1113 23.1593 11.1656 23.3659 11.2335ZM34.7486 12.5104C35.0951 12.5719 35.5661 12.6529 35.7938 12.6941C36.0214 12.7331 36.2978 12.78 36.4069 12.798C36.5141 12.8186 36.6701 12.8483 36.7496 12.8663C36.828 12.8839 36.984 12.915 37.0909 12.9413C37.449 13.0189 37.5353 13.0369 38.1191 13.1738C38.7461 13.3215 38.8826 13.3489 39.0746 13.3898C39.2366 13.4205 39.3994 13.4824 39.3994 13.5116C39.3994 13.521 39.2794 13.59 39.1365 13.6643C38.8403 13.8124 38.7788 13.8225 37.5608 13.869C36.7301 13.905 36.2884 13.8953 35.8838 13.8304C35.0689 13.7051 34.6478 13.4756 34.3193 12.9803C34.2041 12.8108 34.128 12.762 33.8644 12.6938C33.7669 12.6645 33.6188 12.6255 33.5408 12.6C33.4613 12.5753 33.3244 12.5363 33.237 12.51C32.9782 12.4421 33.126 12.4028 33.648 12.4028C34.0087 12.4028 34.2611 12.4275 34.7486 12.5104ZM39.0851 17.5204C39.0553 17.5268 39.0245 17.5268 38.9948 17.5204C38.97 17.5084 38.988 17.5024 39.0382 17.5024C39.0885 17.5024 39.1065 17.5088 39.0851 17.5204ZM38.9291 17.5624C38.9291 17.58 38.8871 17.6063 38.8316 17.6164C38.5986 17.6796 38.3667 17.7467 38.136 17.8178C38.0861 17.8358 37.9245 17.886 37.7767 17.928C37.4044 18.0353 36.5036 18.3296 36.2617 18.4223C35.8084 18.5948 34.74 19.1621 34.5892 19.3114C34.3665 19.5311 34.2968 19.7685 34.329 20.2204C34.3403 20.4086 34.3665 20.6494 34.3871 20.7533C34.4295 20.9794 34.4051 21.0413 34.3189 20.9291C34.2315 20.8189 34.0474 20.4173 33.9938 20.2204C33.9649 20.1293 33.9322 20.0123 33.9142 19.9541C33.849 19.7505 33.8752 19.5098 33.9761 19.362C34.1126 19.1539 34.6035 18.8209 35.1806 18.5445C35.4536 18.4125 36.2505 18.1395 36.9836 17.9246C37.1314 17.8811 37.2926 17.8309 37.3429 17.8178C37.863 17.6423 38.9291 17.4731 38.9291 17.5624ZM27.5254 17.8031C27.5156 17.8129 27.483 17.8178 27.4571 17.8061C27.4279 17.7949 27.4391 17.7851 27.4778 17.7851C27.519 17.7818 27.5404 17.7919 27.5254 17.8031Z" fill="white"/>
<path d="M19.9646 24.738V27.2475H21.7608C23.109 27.2475 23.5672 27.2362 23.5995 27.2036C23.6535 27.15 23.6647 22.2274 23.6111 22.2274C23.5935 22.2274 23.5672 22.2555 23.556 22.2877C23.5428 22.3204 23.1491 22.9327 22.68 23.6501C21.9382 24.7834 21.7316 25.0594 21.7316 24.9199C21.7316 24.8951 20.5027 22.9774 20.1888 22.5139C20.146 22.4538 20.1084 22.3902 20.0763 22.3237C20.0475 22.2694 20.0118 22.2277 19.9938 22.2277C19.9792 22.2277 19.9646 23.3576 19.9646 24.738Z" fill="white"/>
</g>
<defs>
<clipPath id="clip0_18_51">
<rect width="48" height="48" fill="white" transform="translate(0.370239)"/>
</clipPath>
</defs>
</svg>
