<svg width="49" height="48" viewBox="0 0 49 48" fill="none" xmlns="http://www.w3.org/2000/svg">
<g clip-path="url(#clip0_16_43)">
<path d="M37.1202 0H11.6202C5.40704 0 0.370239 5.0368 0.370239 11.25V36.75C0.370239 42.9632 5.40704 48 11.6202 48H37.1202C43.3334 48 48.3702 42.9632 48.3702 36.75V11.25C48.3702 5.0368 43.3334 0 37.1202 0Z" fill="#023430"/>
<path d="M32.4652 20.1733C30.4895 11.4581 26.372 9.138 25.3216 7.49794C24.8884 6.77544 24.5048 6.02441 24.1732 5.25C24.1177 6.02438 24.0157 6.51187 23.3576 7.09912C22.0362 8.27719 16.4244 12.8503 15.9521 22.7528C15.512 31.9856 22.7396 37.6787 23.6943 38.2673C24.4286 38.6286 25.3227 38.2749 25.7591 37.9432C29.243 35.5522 34.0032 29.1776 32.4689 20.1733" fill="#10AA50"/>
<path d="M24.4724 33.3508C24.2906 35.6361 24.1602 36.964 23.6982 38.2699C23.6982 38.2699 24.0014 40.4455 24.2144 42.75H24.968C25.1477 41.1271 25.4222 39.5161 25.79 37.9253C24.8144 37.4453 24.5099 35.3561 24.4724 33.3508Z" fill="#B8C4C2"/>
<path d="M25.7887 37.9265C24.8028 37.4711 24.5176 35.3379 24.4737 33.3508C24.7175 30.0727 24.7886 26.7841 24.6867 23.4986C24.635 21.7747 24.7111 7.53148 24.2621 5.44611C24.5693 6.15239 24.9233 6.83741 25.3216 7.49661C26.372 9.13798 30.4908 11.4581 32.4652 20.1733C34.0032 29.1622 29.2689 35.52 25.7887 37.9265Z" fill="#12924F"/>
</g>
<defs>
<clipPath id="clip0_16_43">
<rect width="48" height="48" fill="white" transform="translate(0.370239)"/>
</clipPath>
</defs>
</svg>
