<svg width="49" height="48" viewBox="0 0 49 48" fill="none" xmlns="http://www.w3.org/2000/svg">
<path d="M3.73886 29.28C3.38749 29.3723 2.88536 29.6621 2.64836 29.9126L2.41511 30.1481L2.35024 29.3186H1.49036L1.47086 32.325L1.45624 35.3374H2.43499L2.46274 33.3784C2.49499 31.1678 2.53399 30.9578 2.95211 30.5306C3.25586 30.2213 3.73211 30.0491 4.14836 30.0964C4.49936 30.135 4.74386 30.2929 4.92911 30.6083C5.05361 30.8198 5.06036 30.9709 5.08174 33.0825L5.10124 35.3374H6.07999L6.09911 33.2467C6.11861 31.2409 6.12536 31.1483 6.26486 30.8846C6.77374 29.9449 8.11699 29.8009 8.55874 30.6356C8.69186 30.8846 8.69861 31.023 8.71811 33.1147L8.74399 35.3374H9.66424L9.64324 32.8845L9.62374 30.4373L9.43811 30.0896C9.02861 29.3126 7.89686 29.0104 6.95936 29.4184C6.80636 29.4851 6.51536 29.7015 6.31061 29.8912C5.96786 30.2149 5.93374 30.2347 5.86211 30.1162C5.68961 29.82 5.40499 29.5567 5.12036 29.4187C4.78249 29.2669 4.06886 29.1893 3.73886 29.28Z" fill="black"/>
<path d="M11.9776 29.2864C11.1778 29.457 10.4041 30.0289 10.1 30.6874C9.63013 31.6811 9.64963 33.1084 10.1458 34.0736C10.6494 35.0606 11.9518 35.6261 13.1349 35.3824C14.7496 35.0411 15.5022 33.9161 15.3897 32.016C15.3702 31.6871 15.3103 31.2731 15.2517 31.0826C15.0275 30.3656 14.3791 29.6944 13.6505 29.4244C13.2211 29.2605 12.4145 29.1956 11.9776 29.2864ZM13.3336 30.2344C14.0409 30.5625 14.3851 31.2405 14.3791 32.3119C14.3724 33.3979 14.0551 34.074 13.3936 34.4104C12.95 34.6391 12.2101 34.6459 11.7988 34.4366C11.5156 34.2851 11.1778 33.9424 11.0184 33.6398C10.7206 33.0675 10.7079 31.7329 10.9925 31.122C11.3098 30.4313 11.8333 30.0893 12.566 30.0829C12.8848 30.0765 13.0831 30.1151 13.3336 30.2344ZM17.7913 29.3059C17.321 29.4439 17.0368 29.6018 16.7653 29.8781C16.6205 30.0229 16.4806 30.1414 16.4548 30.1414C16.4285 30.1414 16.4026 29.9513 16.4026 29.7139V29.28L15.9916 29.2988L15.5754 29.3186L15.5559 32.3246L15.5424 35.337H16.5343V33.4433C16.541 31.4438 16.5733 31.1153 16.838 30.7204C17.0236 30.4305 17.5194 30.1541 17.9566 30.096C18.5844 30.0098 19.2264 30.3724 19.3715 30.8974C19.4184 31.0631 19.4443 31.923 19.4443 33.2464V35.337H20.4425L20.423 32.9831L20.4035 30.6356L20.231 30.2666C20.0326 29.8523 19.7356 29.5823 19.2658 29.3985C18.8559 29.2403 18.1745 29.1949 17.7913 29.3059ZM22.6175 29.2796C21.6196 29.4975 20.9124 30.2539 20.6345 31.3916C20.5093 31.8971 20.5288 32.8579 20.6668 33.3311C21.0718 34.7261 21.9706 35.4169 23.273 35.3243C23.7755 35.2849 24.2124 35.1143 24.5487 34.818C24.7738 34.6204 24.7944 34.6136 24.8338 34.7389C24.9001 34.9553 24.7944 35.8035 24.6676 36.093C24.4175 36.6593 23.9214 36.9154 23.0874 36.9154C22.3411 36.9094 21.8371 36.6326 21.7186 36.153C21.686 36.0281 21.6196 35.9955 21.3755 35.9618C21.2222 35.945 21.0698 35.921 20.9188 35.8898C20.7804 35.8635 20.7658 35.8834 20.7658 36.1403C20.7725 36.771 21.2488 37.3238 22.016 37.587C22.3546 37.7059 22.5984 37.7381 23.1136 37.7381C24.305 37.7381 25.1244 37.317 25.5211 36.5078C25.8185 35.9093 25.8658 35.2121 25.8444 32.016L25.8249 29.319H24.965L24.9455 29.6621C24.9327 29.8523 24.9065 30.0098 24.8874 30.0098C24.866 30.0098 24.7475 29.9183 24.6155 29.8065C24.113 29.3663 23.2535 29.1416 22.6179 29.28L22.6175 29.2796ZM23.9214 30.2404C24.107 30.3394 24.344 30.5168 24.4434 30.6484C25.1844 31.6144 25.0445 33.6071 24.1854 34.2248C23.3458 34.8311 22.1754 34.5011 21.7591 33.5486C21.5465 33.0611 21.4944 31.9571 21.6601 31.359C21.785 30.8775 22.1413 30.4178 22.5463 30.2078C22.9021 30.0165 23.4973 30.0289 23.9214 30.2404ZM28.0734 29.3123C27.5255 29.4701 27.3598 29.5496 26.9956 29.826C26.288 30.3529 25.9584 31.1606 25.9648 32.3438C25.9648 33.2059 26.0968 33.726 26.4541 34.2788C26.9304 35.0085 27.7434 35.4169 28.7349 35.4236C29.8794 35.4296 30.785 34.9223 31.2417 34.0219L31.4728 33.5618L31.6775 33.9825C32.4253 35.5549 34.7664 35.9355 36.0961 34.7126C36.3073 34.5214 36.5386 34.2529 36.605 34.1276C36.6781 33.996 36.7494 33.8903 36.7689 33.8903C36.7903 33.8903 36.8619 34.0286 36.9282 34.2056C37.2601 34.9958 38.0795 35.4296 39.2495 35.4229C39.9309 35.4229 40.4334 35.2984 40.8901 35.0085C41.1616 34.8379 41.5974 34.35 41.5974 34.212C41.5974 34.1861 41.63 34.0808 41.6705 33.9833L41.7354 33.7976L41.927 34.1276C42.755 35.5744 45.0631 35.8961 46.3183 34.7453C46.643 34.443 47.0855 33.6611 46.9801 33.5618C46.9471 33.5295 46.7229 33.4755 46.4776 33.4493L46.0423 33.3911L45.9346 33.6139C45.6372 34.2315 45.2146 34.542 44.5737 34.5941C43.5612 34.6868 42.8004 34.0609 42.602 32.9899C42.5694 32.7994 42.5562 32.6273 42.5757 32.6074C42.5952 32.5883 43.6213 32.5751 44.8501 32.5751H47.0851V32.2208C47.0851 31.7655 46.9993 31.3185 46.8159 30.8321C46.6025 30.2663 45.956 29.6359 45.3676 29.4184C44.7316 29.181 43.8522 29.1956 43.2245 29.4506C42.173 29.8781 41.537 30.9446 41.5306 32.2661V32.7199L41.2674 32.4889C40.9824 32.253 40.4142 32.0224 39.515 31.7865C38.5085 31.5233 38.1718 31.3913 37.9933 31.1865C37.8016 30.9578 37.7885 30.8066 37.9269 30.543C38.0795 30.2404 38.5018 30.0765 39.131 30.0765C39.851 30.0765 40.175 30.2404 40.4075 30.714C40.5387 30.9833 40.5988 31.0485 40.7049 31.029C40.8537 31.003 41.0033 30.9813 41.1534 30.9641C41.5243 30.9184 41.552 30.8194 41.3064 30.2993C40.9827 29.6081 40.235 29.2538 39.1183 29.2605C38.5948 29.2665 38.3769 29.2928 38.0667 29.418C37.3918 29.6749 37.0081 30.1286 36.9087 30.7931L36.8619 31.0958L36.6571 30.7005C35.6259 28.7269 32.5569 28.7678 31.6385 30.7658L31.4728 31.128L31.2417 30.6683C30.9504 30.0893 30.494 29.6813 29.873 29.4439C29.3236 29.2339 28.5564 29.1803 28.0734 29.3123ZM29.5479 30.2471C30.2289 30.582 30.5671 31.2668 30.5671 32.3115C30.5604 33.7583 29.8925 34.6136 28.7675 34.6136C28.0798 34.6136 27.5045 34.2315 27.194 33.5816C27.0298 33.2269 27.0151 33.1406 27.0151 32.3119C27.0151 31.3444 27.0883 31.0695 27.4719 30.6206C27.9286 30.0829 28.8669 29.9119 29.5479 30.2471ZM34.8118 30.174C35.1305 30.3053 35.5595 30.7009 35.7121 30.9968C36.0035 31.5623 36.0489 32.7458 35.8119 33.4365C35.6788 33.825 35.3158 34.2525 34.9644 34.4235C34.3693 34.7261 33.5094 34.6264 33.0204 34.1985C32.2141 33.4954 32.1148 31.5233 32.8479 30.6746C33.3046 30.1346 34.1836 29.9186 34.8118 30.174ZM45.0485 30.2014C45.5724 30.4245 45.962 30.9574 45.9819 31.4764L45.9946 31.7524H42.6234L42.6429 31.5555C42.6879 31.0028 43.0715 30.4845 43.6149 30.2145C43.9711 30.0356 44.6521 30.0285 45.0485 30.2014ZM37.4049 32.0614C37.6696 32.3051 38.0405 32.4499 39.2173 32.7649C39.7783 32.9164 40.3149 33.0953 40.4075 33.1605C40.9764 33.5681 40.679 34.3568 39.8773 34.5488C39.401 34.659 38.7537 34.6009 38.3705 34.404C38.1054 34.2724 38.0255 34.1794 37.8613 33.8318L37.6632 33.4238L36.8832 33.5018L36.9286 33.1928C36.9478 33.0221 36.9691 32.5684 36.9691 32.1866V31.4891L37.094 31.6875C37.1593 31.7933 37.2991 31.9639 37.4049 32.0614ZM26.534 9.46651C25.9306 9.49089 24.9148 9.65214 24.9148 9.72039C24.9148 9.74926 25.6318 10.1074 25.6854 10.1074C25.7375 10.1074 26.57 10.5236 26.7534 10.6388C26.9956 10.7925 27.1677 10.9331 27.1175 10.9331C27.0852 10.9331 26.2299 10.6031 25.9062 10.4629C25.643 10.3508 24.5473 10.0256 24.0125 9.89889C23.7249 9.83214 23.603 9.80626 23.1118 9.71701C22.3869 9.58389 21.5368 9.57714 21.1644 9.69901C20.6345 9.87151 20.5156 10.0826 20.5156 10.8645C20.5156 11.2939 20.5366 11.4773 20.6311 11.8643C20.6701 12.033 20.7856 12.4024 20.8411 12.528C20.8554 12.5666 20.9056 12.6885 20.9484 12.7976C20.9919 12.9049 21.122 13.1813 21.2371 13.407C21.8825 14.6865 22.8485 15.7545 24.2109 16.6939C24.6395 16.9883 25.8091 17.5478 26.2771 17.6813C26.396 17.7135 26.4361 17.7818 26.339 17.7818C26.2299 17.7818 25.2433 17.5084 25.04 17.4225C24.9629 17.389 24.8848 17.3581 24.8056 17.3299C24.1036 17.0453 23.2059 16.4618 22.463 15.7984C21.649 15.0744 20.9983 14.1854 20.5543 13.1906C20.2704 12.549 20.0769 11.7994 20.0296 11.1473C20.0007 10.7753 19.9715 10.6841 19.8736 10.689C19.8414 10.689 19.5354 10.6778 19.1953 10.6601C18.2773 10.6208 17.0188 10.7216 15.7753 10.9365C13.3951 11.3408 10.8283 12.2771 8.18525 13.7048C7.7455 13.942 7.31114 14.189 6.8825 14.4458C6.83263 14.475 6.67438 14.5706 6.53 14.6621C6.38563 14.7514 6.21613 14.8526 6.15463 14.8909C6.01813 14.9696 4.50763 15.9953 4.32763 16.1314C4.259 16.182 4.07038 16.3219 3.9125 16.4355C3.1955 16.9676 1.63363 18.24 1.54438 18.3686C1.50013 18.4335 1.56838 18.4661 1.66288 18.4335C1.70975 18.4159 1.83163 18.3915 1.92913 18.3765C2.03038 18.3623 2.29025 18.294 2.50663 18.2228C2.68031 18.1674 2.85483 18.1146 3.03013 18.0645C3.563 17.9396 3.779 17.8958 4.09325 17.85C4.23313 17.8305 4.44275 17.7998 4.56163 17.7818C6.02638 17.5654 6.72538 17.5118 7.37675 17.5624C8.79463 17.6779 10.1503 17.9168 10.9261 18.1931C11.5063 18.4013 12.6879 19.0399 13.2084 19.4239C13.5076 19.6496 14.4733 20.6108 14.6859 20.9014C14.852 21.1309 15.0354 21.3308 15.0796 21.3308C15.0924 21.3308 15.1119 20.5991 15.1153 19.707L15.125 18.0859L17.0221 18.0746C18.5146 18.0679 18.929 18.0795 18.9553 18.1121C18.9909 18.1579 19.0771 18.3116 19.3614 18.8385C19.6333 19.3444 19.7664 19.5878 19.8489 19.7359C19.8916 19.8143 19.9921 20.001 20.0769 20.1469C20.1545 20.295 20.3026 20.5669 20.4031 20.7533C20.5044 20.9408 20.5872 21.0983 20.5872 21.1046C20.5872 21.1373 20.735 21.3308 20.7612 21.3308C20.7763 21.3308 20.8111 21.2768 20.8363 21.2171C20.8655 21.1515 20.9413 21.009 21.002 20.9014C21.0669 20.7926 21.182 20.5811 21.2619 20.4349C21.3414 20.2868 21.4505 20.0839 21.5075 19.9864C21.6665 19.7033 21.8323 19.3946 21.9688 19.1441C22.0374 19.0144 22.1465 18.8141 22.2095 18.6953C22.2744 18.5768 22.3689 18.4095 22.4195 18.3184C22.4562 18.247 22.4975 18.1781 22.5433 18.1121C22.5706 18.0795 22.9966 18.0679 24.5326 18.0746L26.4838 18.0859L26.4931 21.2528C26.5018 23.748 26.5111 24.4144 26.5486 24.4144C26.5693 24.411 26.7144 24.3281 26.8625 24.2243C27.0706 24.078 27.1614 23.9888 27.2574 23.823C27.4786 23.4473 28.1011 22.8555 28.5204 22.626C29.0285 22.345 29.5751 22.1398 30.1426 22.017C30.7201 21.8951 30.8889 21.8771 32.1976 21.8295C34.5875 21.747 34.9419 21.732 34.9599 21.7144C34.9692 21.7043 34.937 21.6101 34.8916 21.5029C34.8414 21.399 34.7536 21.2055 34.6929 21.0773C34.4656 20.5845 34.4656 20.4206 34.703 20.1795C34.8654 20.0123 35.2831 19.8645 36.0016 19.7213C36.1205 19.695 36.2682 19.6643 36.3305 19.6414C36.3905 19.6238 36.467 19.6106 36.4993 19.6106C36.5889 19.6106 37.307 19.4333 37.4585 19.3766C37.5628 19.3343 38.1249 19.2124 38.7961 19.0826C39.0875 19.0256 39.845 18.8745 40.4724 18.7489C40.8691 18.6709 41.2835 18.588 41.3911 18.567C41.4999 18.5445 41.6544 18.5134 41.7339 18.4988C41.8134 18.4808 41.9176 18.4598 41.9683 18.4515C42.0181 18.4403 42.272 18.3915 42.527 18.3379C42.7196 18.2959 42.9132 18.2584 43.1075 18.2254C43.2879 18.2078 44.6473 17.8811 44.9608 17.7818C45.4584 17.6198 45.6058 17.556 45.92 17.3445C46.2598 17.1135 46.3524 16.9883 46.6873 16.3219C47.0596 15.5794 47.1133 15.4538 47.2175 15.1418C47.3795 14.6445 47.3701 14.4544 47.1631 14.2463C47.0206 14.103 46.7101 13.9549 46.4825 13.9223C46.3138 13.9016 46.2924 13.9076 46.2076 13.9988C46.1574 14.0528 46.115 14.1158 46.115 14.1386C46.115 14.1694 46.0565 14.3291 45.8956 14.7161C45.881 14.7548 45.8488 14.8526 45.8225 14.9303C45.7974 15.0154 45.7675 15.099 45.7329 15.1808C45.686 15.2816 45.683 15.2636 45.7002 14.9839C45.7183 14.7075 45.7659 14.475 45.8698 14.1244C45.8878 14.0561 45.9136 13.9403 45.923 13.8686L45.941 13.7404L45.5671 13.5893C45.2593 13.4634 44.9528 13.3344 44.6476 13.2023C44.5275 13.1547 44.407 13.1081 44.2861 13.0624C44.1611 13.0171 44.0377 12.9677 43.916 12.9143C43.7907 12.8596 43.6644 12.8071 43.5373 12.7568C43.2946 12.6641 42.4509 12.3784 41.7339 12.1519C41.5389 12.0904 40.4041 11.7506 40.292 11.718C40.1233 11.6745 39.9554 11.6278 39.7884 11.5781C39.7295 11.5635 39.5896 11.5249 39.4809 11.4953C38.8471 11.3198 38.681 11.2759 38.4534 11.2121C38.3281 11.1749 38.2018 11.1414 38.0746 11.1116C38.0064 11.0936 37.8196 11.0501 37.6599 11.0108C36.9699 10.8477 36.2791 10.6879 35.5876 10.5315C35.4371 10.4959 35.2863 10.4611 35.1354 10.4273C35.028 10.4034 34.9201 10.3818 34.8118 10.3624C34.6613 10.3349 34.5113 10.3051 34.3617 10.2731C34.1275 10.227 33.8927 10.1835 33.6575 10.1426C33.4474 10.105 33.2372 10.0682 33.0268 10.0324C32.0323 9.85351 31.9632 9.84226 30.1786 9.64539C29.078 9.52051 27.6001 9.41664 27.2394 9.43389C27.0042 9.44182 26.7692 9.4527 26.5344 9.46651H26.534ZM22.3659 11.2335C23.3165 11.5429 24.2435 11.9618 24.8791 12.3698C25.3828 12.6968 26.0105 13.2173 26.1796 13.4498L26.2528 13.5473L26.1144 13.4933C26.0394 13.461 25.8804 13.3928 25.7619 13.3358C25.1281 13.0414 25.0595 13.0151 25.0595 13.0808C25.0595 13.0984 25.2072 13.3358 25.3827 13.6005C25.5635 13.8686 25.7079 14.1064 25.7079 14.127C25.7079 14.145 25.6396 14.1158 25.5568 14.0588C25.232 13.8364 24.4708 13.518 24.4269 13.5825C24.4175 13.6005 24.6519 13.8983 24.9504 14.2463C25.2459 14.5939 25.4915 14.8913 25.4915 14.9123C25.4915 14.9666 25.4334 14.9595 25.1604 14.8586C24.8791 14.7581 24.8056 14.7484 24.8056 14.8151C24.8056 14.862 25.4154 15.6833 25.6576 15.9679C25.7259 16.0455 25.7795 16.1205 25.7795 16.1385C25.7795 16.2248 24.9358 15.6765 24.3376 15.2033C23.4826 14.5226 22.6565 13.6069 22.2208 12.8513C21.8649 12.2336 21.7415 11.9003 21.7415 11.5343C21.7415 11.3198 21.7528 11.2759 21.8326 11.2013C21.8784 11.1506 21.9365 11.1113 21.9575 11.1113C21.98 11.1113 22.1593 11.1656 22.3659 11.2335ZM33.7486 12.5104C34.0951 12.5719 34.5661 12.6529 34.7938 12.6941C35.0214 12.7331 35.2978 12.78 35.4069 12.798C35.5141 12.8186 35.6701 12.8483 35.7496 12.8663C35.828 12.8839 35.984 12.915 36.0909 12.9413C36.449 13.0189 36.5353 13.0369 37.1191 13.1738C37.7461 13.3215 37.8826 13.3489 38.0746 13.3898C38.2366 13.4205 38.3994 13.4824 38.3994 13.5116C38.3994 13.521 38.2794 13.59 38.1365 13.6643C37.8403 13.8124 37.7788 13.8225 36.5608 13.869C35.7301 13.905 35.2884 13.8953 34.8838 13.8304C34.0689 13.7051 33.6478 13.4756 33.3193 12.9803C33.2041 12.8108 33.128 12.762 32.8644 12.6938C32.7669 12.6645 32.6188 12.6255 32.5408 12.6C32.4613 12.5753 32.3244 12.5363 32.237 12.51C31.9782 12.4421 32.126 12.4028 32.648 12.4028C33.0087 12.4028 33.2611 12.4275 33.7486 12.5104ZM38.0851 17.5204C38.0553 17.5268 38.0245 17.5268 37.9948 17.5204C37.97 17.5084 37.988 17.5024 38.0382 17.5024C38.0885 17.5024 38.1065 17.5088 38.0851 17.5204ZM37.9291 17.5624C37.9291 17.58 37.8871 17.6063 37.8316 17.6164C37.5986 17.6796 37.3667 17.7467 37.136 17.8178C37.0861 17.8358 36.9245 17.886 36.7767 17.928C36.4044 18.0353 35.5036 18.3296 35.2617 18.4223C34.8084 18.5948 33.74 19.1621 33.5892 19.3114C33.3665 19.5311 33.2968 19.7685 33.329 20.2204C33.3403 20.4086 33.3665 20.6494 33.3871 20.7533C33.4295 20.9794 33.4051 21.0413 33.3189 20.9291C33.2315 20.8189 33.0474 20.4173 32.9938 20.2204C32.9649 20.1293 32.9322 20.0123 32.9142 19.9541C32.849 19.7505 32.8752 19.5098 32.9761 19.362C33.1126 19.1539 33.6035 18.8209 34.1806 18.5445C34.4536 18.4125 35.2505 18.1395 35.9836 17.9246C36.1314 17.8811 36.2926 17.8309 36.3429 17.8178C36.863 17.6423 37.9291 17.4731 37.9291 17.5624ZM26.5254 17.8031C26.5156 17.8129 26.483 17.8178 26.4571 17.8061C26.4279 17.7949 26.4391 17.7851 26.4778 17.7851C26.519 17.7818 26.5404 17.7919 26.5254 17.8031Z" fill="black"/>
<path d="M18.9646 24.738V27.2475H20.7608C22.109 27.2475 22.5672 27.2362 22.5995 27.2036C22.6535 27.15 22.6647 22.2274 22.6111 22.2274C22.5935 22.2274 22.5672 22.2555 22.556 22.2877C22.5428 22.3204 22.1491 22.9327 21.68 23.6501C20.9382 24.7834 20.7316 25.0594 20.7316 24.9199C20.7316 24.8951 19.5027 22.9774 19.1888 22.5139C19.146 22.4538 19.1084 22.3902 19.0763 22.3237C19.0475 22.2694 19.0118 22.2277 18.9938 22.2277C18.9792 22.2277 18.9646 23.3576 18.9646 24.738Z" fill="black"/>
</svg>
