<svg width="79" height="48" viewBox="0 0 79 48" fill="none" xmlns="http://www.w3.org/2000/svg">
<path d="M38.732 48C38.4749 48 38.2177 47.9265 37.9851 47.8041L35.634 46.4081C35.2789 46.2122 35.4503 46.1387 35.5728 46.102C36.0381 45.9428 36.136 45.906 36.6381 45.6122C36.6871 45.5877 36.7605 45.5999 36.8095 45.6244L38.6218 46.702C38.6831 46.7387 38.781 46.7387 38.8423 46.702L45.9201 42.612C45.9813 42.5753 46.0303 42.5018 46.0303 42.4161V34.2485C46.0303 34.1628 45.9935 34.0893 45.9201 34.0525L38.8423 29.9748C38.781 29.9381 38.6953 29.9381 38.6218 29.9748L31.544 34.0525C31.4706 34.0893 31.4338 34.175 31.4338 34.2485V42.4161C31.4338 42.4896 31.4828 42.5631 31.544 42.5998L33.4788 43.7141C34.5319 44.2407 35.1809 43.6162 35.1809 43.0039V34.9342C35.1809 34.824 35.2666 34.726 35.3891 34.726H36.283C36.3932 34.726 36.4911 34.8118 36.4911 34.9342V43.0039C36.4911 44.4121 35.7319 45.2081 34.3972 45.2081C33.9931 45.2081 33.6625 45.2081 32.7686 44.7672L30.9073 43.7019C30.4542 43.4325 30.1603 42.9427 30.1603 42.4161V34.2485C30.1603 33.7219 30.4419 33.2199 30.9073 32.9627L37.9851 28.8728C38.4382 28.6156 39.0259 28.6156 39.4668 28.8728L46.5446 32.9627C46.9977 33.2321 47.2916 33.7219 47.2916 34.2485V42.4161C47.2916 42.9427 47.0099 43.4447 46.5446 43.7019L39.4668 47.7918C39.2586 47.9265 39.0014 48 38.732 48ZM44.4506 39.9426C44.4506 38.4119 43.422 38.0078 41.2423 37.7139C39.0382 37.42 38.8178 37.2731 38.8178 36.7588C38.8178 36.3302 39.0014 35.7669 40.6301 35.7669C42.0873 35.7669 42.6261 36.0853 42.8465 37.0649C42.871 37.1629 42.9445 37.2241 43.0424 37.2241H43.9608C44.022 37.2241 44.071 37.1996 44.1078 37.1629C44.1445 37.1139 44.169 37.0649 44.1567 37.0037C44.0098 35.3138 42.8955 34.5301 40.6301 34.5301C38.6096 34.5301 37.4096 35.3873 37.4096 36.8078C37.4096 38.3629 38.6096 38.7792 40.5444 38.9752C42.8587 39.2078 43.0424 39.5385 43.0424 39.9915C43.0424 40.7875 42.4057 41.1181 40.9117 41.1181C39.0382 41.1181 38.6218 40.6528 38.4871 39.7221C38.4749 39.6242 38.3892 39.5507 38.279 39.5507H37.3606C37.2504 39.5507 37.1524 39.6364 37.1524 39.7589C37.1524 40.9467 37.8014 42.3671 40.8995 42.3671C43.1649 42.3671 44.4506 41.4855 44.4506 39.9426ZM51.1243 33.8076C51.1243 34.5546 50.5121 35.1669 49.7651 35.1669C49.0181 35.1669 48.4059 34.5546 48.4059 33.8076C48.4059 33.0362 49.0426 32.4484 49.7651 32.4484C50.4998 32.4362 51.1243 33.0362 51.1243 33.8076ZM50.9039 33.8076C50.9039 33.1709 50.3896 32.6688 49.7529 32.6688C49.1284 32.6688 48.614 33.1709 48.614 33.8076C48.614 34.4444 49.1284 34.9587 49.7529 34.9587C50.3896 34.9465 50.9039 34.4322 50.9039 33.8076ZM50.3529 34.5668H50.0345C50.0223 34.4934 49.9733 34.1015 49.9733 34.0893C49.9488 34.0036 49.9243 33.9546 49.8141 33.9546H49.5447V34.5668H49.2508V33.0362H49.7774C49.961 33.0362 50.3162 33.0362 50.3162 33.4403C50.3162 33.7219 50.1325 33.7831 50.0223 33.8199C50.2304 33.8321 50.2427 33.9668 50.2794 34.1628C50.2917 34.2852 50.3162 34.4934 50.3529 34.5668ZM50.01 33.4893C50.01 33.2811 49.8631 33.2811 49.7896 33.2811H49.5447V33.7097H49.7774C49.9733 33.7097 50.01 33.575 50.01 33.4893ZM16.8129 16.0396C16.8129 15.709 16.6414 15.4151 16.3598 15.2559L8.85339 10.9333C8.73094 10.8598 8.58399 10.8231 8.43705 10.8109H8.36358C8.21663 10.8109 8.08193 10.8598 7.94723 10.9333L0.453078 15.2559C0.171435 15.4151 0 15.7213 0 16.0396L0.0122454 27.6727C0.0122454 27.8319 0.0979628 27.9789 0.232662 28.0646C0.367361 28.1503 0.538795 28.1503 0.68574 28.0646L5.14305 25.5053C5.42469 25.3339 5.59613 25.04 5.59613 24.7216V19.2847C5.59613 18.9663 5.76756 18.6601 6.0492 18.5009L7.94723 17.4111C8.09418 17.3254 8.24112 17.2887 8.40031 17.2887C8.5595 17.2887 8.71869 17.3254 8.85339 17.4111L10.7514 18.5009C11.0331 18.6601 11.2045 18.9663 11.2045 19.2847V24.7216C11.2045 25.04 11.3759 25.3461 11.6576 25.5053L16.1149 28.0646C16.2496 28.1503 16.4333 28.1503 16.568 28.0646C16.7027 27.9911 16.7884 27.8319 16.7884 27.6727L16.8129 16.0396ZM57.8593 3.3412V24.942C57.8593 25.2604 57.6879 25.5665 57.4062 25.7257L49.8998 30.0606C49.6182 30.2197 49.2753 30.2197 48.9937 30.0606L41.4873 25.7257C41.2056 25.5665 41.0342 25.2604 41.0342 24.942V16.2723C41.0342 15.9539 41.2056 15.6478 41.4873 15.4886L48.9937 11.1537C49.2753 10.9945 49.6182 10.9945 49.8998 11.1537L51.7733 12.2313C51.9815 12.3538 52.2509 12.1946 52.2509 11.9619V0.4513C52.2509 0.10843 52.6183 -0.111987 52.9244 0.0594483L57.394 2.5575C57.6756 2.70444 57.8593 3.01058 57.8593 3.3412ZM52.2264 19.1255C52.2264 19.0397 52.1774 18.9663 52.1162 18.9295L49.5447 17.4356C49.4712 17.3989 49.3855 17.3989 49.312 17.4356L46.7405 18.9295C46.667 18.9663 46.6303 19.0397 46.6303 19.1255V22.1011C46.6303 22.1868 46.6793 22.2603 46.7405 22.297L49.312 23.7787C49.3855 23.8154 49.4712 23.8154 49.5325 23.7787L52.104 22.297C52.1774 22.2603 52.2142 22.1868 52.2142 22.1011V19.1255H52.2264ZM77.9172 19.0397C78.1988 18.8806 78.3703 18.5744 78.3703 18.256V16.1621C78.3703 15.8437 78.1988 15.5376 77.9172 15.3784L70.4598 11.0435C70.1781 10.8843 69.8352 10.8843 69.5536 11.0435L62.0472 15.3784C61.7656 15.5376 61.5941 15.8437 61.5941 16.1621V24.8318C61.5941 25.1624 61.7656 25.4563 62.0472 25.6155L69.5046 29.8646C69.774 30.0238 70.1169 30.0238 70.3985 29.8646L74.9048 27.3543C75.211 27.1829 75.211 26.7421 74.9048 26.5706L67.3494 22.2358C67.2025 22.1501 67.1168 22.0031 67.1168 21.8439V19.1255C67.1168 18.9663 67.2025 18.8193 67.3494 18.7336L69.7005 17.3744C69.8353 17.2887 70.0189 17.2887 70.1536 17.3744L72.5047 18.7336C72.6394 18.8193 72.7374 18.9663 72.7374 19.1255V21.2562C72.7374 21.599 73.117 21.8194 73.4231 21.648L77.9172 19.0397ZM68.4515 19.4683C68.4025 19.5051 68.3658 19.554 68.3658 19.6153V21.2806C68.3658 21.3419 68.4025 21.4031 68.4515 21.4276L69.8965 22.2603C69.9454 22.297 70.0189 22.297 70.0679 22.2603L71.5129 21.4276C71.5618 21.3909 71.5986 21.3419 71.5986 21.2806V19.6153C71.5986 19.554 71.5618 19.4928 71.5129 19.4683L70.0679 18.6356C70.0189 18.5989 69.9454 18.5989 69.8965 18.6356L68.4515 19.4683ZM37.3238 24.7951V16.1743C37.3238 15.856 37.1279 15.5498 36.8463 15.3906L29.3644 11.0803C29.1072 10.9333 28.7521 10.9088 28.4582 11.0803L20.9763 15.3906C20.6946 15.5498 20.4987 15.8437 20.4987 16.1743V24.7951C20.4987 25.1379 20.7314 25.4318 20.9885 25.5788L28.4827 29.8891C28.7766 30.0606 29.1194 30.0483 29.3888 29.8891L36.8585 25.5788C37.0789 25.4563 37.2381 25.2481 37.2993 25.0032C37.3116 24.942 37.3238 24.8685 37.3238 24.7951ZM28.2255 9.50062L28.1276 9.56184H28.2623L28.2255 9.50062ZM37.5565 25.4441L37.5075 25.3583V25.4686L37.5565 25.4441Z" fill="white"/>
</svg>
